<ttFont>
<head>
    <!-- Most of this table will be recalculated by the compiler -->
    <tableVersion value="1.0"/>
    <fontRevision value="3.107"/>
    <checkSumAdjustment value="0x21235a50"/>
    <magicNumber value="0x5f0f3cf5"/>
    <flags value="00000000 00000011"/>
    <unitsPerEm value="984"/>
    <created value="Thu Jun  5 12:13:03 2014"/>
    <modified value="Thu Jun  5 12:13:03 2014"/>
    <xMin value="-168"/>
    <yMin value="-500"/>
    <xMax value="1360"/>
    <yMax value="1050"/>
    <macStyle value="00000000 00000000"/>
    <lowestRecPPEM value="3"/>
    <fontDirectionHint value="2"/>
    <indexToLocFormat value="0"/>
    <glyphDataFormat value="0"/>
  </head>
          <CharString index="0">
            rmoveto
            109.220001221 -56.7100067139 63.5800018311 -125.059997559 -58.1000061035 -56.5800018311 -12.1300048828 -23.6100006104 -63.3200073242 vhcurveto
            21.1900024414 -61.7100067139 rlineto
            18.2599945068 53.4900054932 48.6100006104 10.2599945068 39.9100036621 hhcurveto
            76.2200012207 36.3600006104 -30.1999969482 -77.5500030518 hvcurveto
            -41.5800018311 -85.5200042725 vlineto
            -143.899993896 -84.6199951172 -60.7400054932 -112.220001221 -93.8699951172 62.4900054932 -64.4900054932 104.220001221 65.5599975586 55.7200012207 24.7299957275 55.9100036621 -26 callsubr
            -7 19.1999969482 58.4499969482 rcurveline
            -27.3899993896 10.2599945068 -16.6100006104 15.5200042725 48.8399963379 vvcurveto
            -213.039993286 -69.3600006104 rmoveto
            -62.1900024414 -33.3300018311 34.6799926758 64.3200073242 74.7100067139 51.4499969482 37.1600036621 98.8099975586 hvcurveto
            74.2899932861 -125.919998169 hlineto
            -56.2899932861 -30.6100006104 -41.1000061035 -28.6600036621 -57.3200073242 hhcurveto
            endchar
          </CharString>
          <CharString index="1">
            rmoveto
            -170.330001831 303 callsubr
            -230.220001221 117.839996338 -124 170.449996948 172.100006104 116.190002441 128 228 callsubr
            229 callgsubr
            -116.839996338 124.490005493 -171.449996948 hvcurveto
            -71.6799926758 vmoveto
            302 callgsubr
            -200.330001831 -201.419998169 -76.0700073242 -82.1300048828 -120.130004883 -115.61000061 -80.5800018311 82.1300048828 200.419998169 219 callsubr
            77.8399963379 84.6100006104 118.350006104 hvcurveto
            return
          </CharString>
          <CharString index="2">
            rmoveto
            -150.070007324 -102.220001221 -108.220001221 -183.520004272 -188.479995728 102.089996338 -103.619995117 150.199996948 150.970001221 100.710006714 106.619995117 186.479995728 187.38999939 -101.100006104 103.350006104 -150.580001831 hvcurveto
            204 callgsubr
            vmoveto
            101.229995728 61.9700012207 -66.7100067139 -156.839996338 -160.679992676 -62.4499969482 -65.2200012207 -100.740005493 -97.2299957275 -66.5800018311 65.2200012207 159.679992676 157.710006714 64.8399963379 66.8399963379 98.9700012207 hvcurveto
            endchar
          </CharString>
          <CharString index="3">
            rmoveto
            -106.669998169 -79.7100067139 -59.9700012207 -82.2299957275 -74.6100006104 45 -47.1999969482 113.479995728 -29.8699951172 hvcurveto
            103.550003052 -27.5099945068 26.7799987793 -20.7799987793 -57.1900024414 vvcurveto
            -49.8699951172 -46.1999969482 -32.2899932861 -70.5500030518 -58.8000030518 -48.1000061035 19.2599945068 34.3800048828 -40.8999938965 vhcurveto
            -46.7400054932 -53.0899963379 rlineto
            -39.6199951172 45.8699951172 62.3200073242 -29 88.1000061035 hhcurveto
            106.350006104 97.1300048828 51.1600036621 106.910003662 91.3500061035 -61.5500030518 42.7100067139 -111.899993896 28.5200042725 hvcurveto
            -86.9400024414 22.6399993896 -29.2899932861 20.6499938965 45.0599975586 vvcurveto
            44.8399963379 39.3300018311 28.5500030518 62.1900024414 49.9100036621 40.4799957275 -15.1300048828 -33.1300048828 45.8699951172 vhcurveto
            37.1600036621 55.8399963379 rlineto
            38.1300048828 -49.8699951172 -53.9700012207 21.4900054932 -72.3200073242 hhcurveto
            return
          </CharString>
          <CharString index="4">
            rmoveto
            -125.320007324 -87.9400024414 -73.3600006104 -103.929992676 -104.940002441 67.2899932861 -50.2200012207 134.649993896 -41.2599945068 hvcurveto
            118.160003662 -36.3899993896 33.9299926758 -30.8999938965 -70.7400054932 vvcurveto
            -85.1999969482 -67.7700042725 -42.9700012207 -84.6199951172 -76.1600036621 -55.6100006104 27.3899993896 45 -47.2599945068 vhcurveto
            -50.4900054932 310 callsubr
            -55.2299957275 56.7400054932 76.0700073242 -33 97.7100067139 hhcurveto
            151 90.6100006104 83.2299957275 119.350006104 129.419998169 -89.4799957275 43.2599945068 -113.229995728 34.9100036621 hvcurveto
            -123.61000061 37.8699951172 -29.4499969482 28.7700042725 60.9700012207 vvcurveto
            67.2899932861 55.7700042725 34.8399963379 72.4900054932 58.4199981689 47.6100006104 -18.1300048828 -44.2599945068 50 vhcurveto
            49.6199951172 55.1000061035 rlineto
            50.9700012207 -56.9700012207 -58.5800018311 28 -93.5800018311 hhcurveto
            return
          </CharString>
          <CharString index="5">
            rmoveto
            44.0700073242 -140.089996338 rlineto
            88.6100006104 hlineto
            -190.800003052 140 callgsubr
            -103.940002441 hlineto
            -191.669998169 -563.479995728 rlineto
            85.7400054932 hlineto
            44.1300048828 140.089996338 rlineto
            203.009994507 66.3300018311 rmoveto
            -182.11000061 hlineto
            91.1300048828 289.259994507 rlineto
            endchar
          </CharString>
          <CharString index="6">
            135.220001221 67.0700073242 279.029998779 120 callsubr
            hstem
            75.3899993896 79.6399993896 251.070007324 187 callgsubr
            vstem
            487.479995728 341 rmoveto
            46 -13.3200073242 42.4400024414 -24.4400024414 34.1699981689 vhcurveto
            76.5099945068 77.1600036621 -50.4900054932 50.4900054932 -78.2599945068 -78.1499938965 rlineto
            20.6699981689 -32.3999938965 -40.2200012207 11.9900054932 -46.4700012207 hhcurveto
            -44.3600006104 -39.3999938965 -12.6300048828 -21.6699981689 -32.0200042725 hvcurveto
            -78.3500061035 79.7799987793 -50.4799957275 -50.4799957275 77.8099975586 -80.0299987793 rlineto
            -23.1499938965 -33.6600036621 -13.0500030518 -41.3600006104 -44.7299957275 vvcurveto
            -45.4100036621 13.1999969482 -41.8399963379 23.4100036621 -33.9299926758 vhcurveto
            -78.2200012207 -78.1100006104 50.4799957275 -50.4799957275 77.9400024414 78.5899963379 rlineto
            -21.8699951172 32.0800018311 39.5399932861 -12.7200012207 44.5700073242 hhcurveto
            46.4499969482 40.1999969482 11.9799957275 20.6900024414 32.3899993896 hvcurveto
            78.3200073242 -76.6699981689 50.4799957275 50.4900054932 -76.6199951172 75.7400054932 rlineto
            24.5099945068 34.3300018311 13.3699951172 42.7400054932 46.4799957275 vvcurveto
            -206.490005493 -138.710006714 rmoveto
            -82.1900024414 -43.7799987793 52.9299926758 86.5200042725 85.7700042725 43.7799987793 53.8099975586 82.1900024414 82.4499969482 42.6499938965 -53.8099975586 -85.7700042725 -86.3899993896 -42.6499938965 -53.0599975586 -82.4499969482 hvcurveto
            endchar
          </CharString>
          <CharString index="7">
            rmoveto
            -136.710006714 -112.220001221 -101.970001221 -187.770004272 -191.490005493 105.350006104 -102.61000061 144.940002441 80.1900024414 57.3300018311 30.5800018311 33.8699951172 33.6399993896 hvcurveto
            -42.3800048828 52.4799957275 rlineto
            -24.6399993896 -34.2599945068 -35.6199951172 -23.2299957275 -55.2899932861 hhcurveto
            -93.5800018311 -71.8399963379 65.7100067139 159.330001831 162.350006104 74.8399963379 60.1999969482 90.9700012207 43.4199981689 35.2299957275 -13.7400054932 -28.2599945068 36.7700042725 hvcurveto
            44 52.3500061035 rlineto
            36.1000061035 -45.9700012207 -44.2200012207 20.7400054932 -74.5800018311 hhcurveto
            endchar
          </CharString>
          <CharString index="8">
            762 -107 callgsubr
            return
          </CharString>
          <CharString index="9">
            rmoveto
            78.5 61.5 47.5 80 8 hvcurveto
            -56 12 rlineto
            -49 -13.5 369 callgsubr
            -47 hhcurveto
            -47 -28.5 26 49 -13.5 hvcurveto
            -56 -12 rlineto
            -80 8 60 -47.5 77 hhcurveto
            return
          </CharString>
          <CharString index="10">
            -55.1999969482 -33.0299987793 -44.1600036621 -39.5500030518 -59.7100067139 hhcurveto
            -59.7100067139 -26.5800018311 28.8099975586 74.5800018311 hvcurveto
            368.130004883 -84 -377.100006104 vlineto
            -103 54.8699951172 -57.7400054932 92.2599945068 76.4199981689 50.1600036621 32.7100067139 63.6199951172 39.1000061035 vhcurveto
            return
          </CharString>
          <CharString index="11">
            rmoveto
            78.5 61.5 41 70 8 hvcurveto
            -56 12 rlineto
            -41.5 -13.5 -31.5 -17 -47 hhcurveto
            -47 -28.5 17 41.5 -13.5 hvcurveto
            -56 -12 rlineto
            -70 8 60 -41 77 hhcurveto
            return
          </CharString>
          <CharString index="12">
            rmoveto
            -40.1399993896 -33.75 -15.75 -33.4600067139 -28.1499938965 hvcurveto
            88.3899993896 4.63999938965 35.9499969482 54.3099975586 59.9400024414 hhcurveto
            23.5 20.5 -6.5 105 callsubr
            20 hvcurveto
            -36 callgsubr
            45.5 rlineto
            16 -25 -30 10 -37 hhcurveto
            -107.5 -65.5 -90.5 -141.5 -117.5 42.5 -82.5 109.5 84 60 61.5 88.5 89 -55 46 -66 hvcurveto
            -23 -231 rmoveto
            -54.1999969482 -21.7700042725 40.4400024414 89.2400054932 -2.32000732422 hvcurveto
            29.6499938965 21.2799987793 29.7200012207 18.6699981689 33.7899932861 hhcurveto
            39 26.5 -22.5 -61.5 -56 -24 -38 -48 hvcurveto
            endchar
          </CharString>
          <CharString index="13">
            rmoveto
            -135.029998779 -122.869995117 -101.320007324 -188.910003662 -194.869995117 95.6499938965 -98.7400054932 152.449996948 79.2599945068 63.9700012207 19.1000061035 32.6100006104 54.4799957275 hvcurveto
            273.330001831 -195.320007324 242 callsubr
            -65.4499969482 rlineto
            103.839996338 -167.619995117 hlineto
            -17.3800048828 -33.0299987793 -37.7400054932 -7.38999938965 -41.1900024414 hhcurveto
            -103.229995728 -59.8699951172 64.8399963379 161.580001831 160.869995117 85.3600006104 62.1600036621 86.6699981689 53.3899993896 35.3800048828 -13.8699951172 -30.8699951172 41 hvcurveto
            48.6199951172 49.6199951172 rlineto
            39.2200012207 -50.3600006104 -50.7100067139 23.1000061035 -79.9299926758 hhcurveto
            return
          </CharString>
          <CharString index="14">
            rmoveto
            -92.2299957275 -66.8000030518 -64.7400054932 -102.970001221 -102.839996338 67.3200073242 -64.4900054932 91.7100067139 93.1000061035 66.8000030518 64.7400054932 102.970001221 102.839996338 -67.3200073242 64.4900054932 -92.5800018311 hvcurveto
            -57.3600006104 vmoveto
            66.4199981689 18.0599975586 -55.6399993896 -54.3300018311 -56.4499969482 -18.0599975586 -53.8999938965 430 callgsubr
            55.6399993896 54.3300018311 56.4499969482 344 callsubr
            53.8999938965 65.5500030518 hvcurveto
            return
          </CharString>
          <CharString index="15">
            rmoveto
            -37.5 71 -196.5 -111.5 26 -45.5 rlineto
            return
          </CharString>
          <CharString index="16">
            -35 -24 -25 -33 283 callgsubr
            36.5 23.5 25 32 33 -23.5 25 -36.5 hvcurveto
            return
          </CharString>
          <CharString index="17">
            -37.8999938965 -24.1799926758 -19.9799957275 -32.9900054932 -34.6600036621 vvcurveto
            -52.3600006104 42.1300048828 -45.8399963379 92.3300018311 vhcurveto
            83.3800048828 hlineto
            67.9400024414 40.8999938965 -26.4199981689 -51.4199981689 -55.0599975586 -41.4199981689 -30.9400024414 -115.800003052 -118.199996948 -29.4499969482 28.2599945068 63.1000061035 -0.259994506836 hvcurveto
            -76.1600036621 hlineto
            -106.36000061 55.2899932861 -51.3200073242 168.779998779 160.550003052 81.6699981689 57.6100006104 100.199996948 82.5800018311 -70.0599975586 60.4499969482 -106.970001221 vhcurveto
            -84.2599945068 hlineto
            -56.0700073242 -16.2899932861 20.0299987793 25.5500030518 20.7200012207 11.6999969482 19.4499969482 17.75 11.4700012207 hvcurveto
            -6.86000061035 21.1999969482 21.9600067139 -3.19999694824 23.8699951172 hhcurveto
            return
          </CharString>
          <CharString index="18">
            rmoveto
            -72.8000030518 19.4499969482 rlineto
            hintmask 10011100
            -36.7899932861 -124.229995728 rlineto
            hintmask 01101100
            4.74000549316 -21.5099945068 -22.7299957275 2.39999389648 -23.7799987793 hhcurveto
            448 callsubr
            303 callsubr
            -161.240005493 57.8000030518 -109.13999939 93.1900024414 -50.9199981689 hvcurveto
            -39.5800018311 -127.050003052 72.8099975586 -19.4499969482 34.8699951172 121.020004272 rlineto
            hintmask 10101100
            -4.94000244141 21.8800048828 23.1300048828 -2.5 24.1799926758 hhcurveto
            172.100006104 116.190002441 128 227.229995728 163.25 -57.9100036621 110.020004272 -94.1199951172 50.8200073242 hvcurveto
            -332.449996948 -325.089996338 rmoveto
            201.059997559 77.8399963379 84.6199951172 118.36000061 18.9100036621 17.7799987793 -1.83999633789 -3.89999389648 16.5500030518 vhcurveto
            -160.169998169 -532.589996338 rlineto
            -55.3699951172 38.4600067139 -33.8999938965 78.5500030518 135.63999939 vvcurveto
            196.199996948 -282.550003052 rmoveto
            -19.1100006104 -18.1600036621 2 4.30000305176 -16.9900054932 hvcurveto
            159.839996338 534.020004272 rlineto
            57.6100006104 -38.1199951172 33 -79.9700012207 -138.679992676 vvcurveto
            -201.419998169 -76.0700073242 -82.1300048828 -120.130004883 vhcurveto
            endchar
          </CharString>
          <CharString index="19">
            rmoveto
            -150.070007324 -102.220001221 -109.089996338 -172.199996948 -115.190002441 34.4199981689 -69.7799987793 76.4199981689 -37.7700042725 hvcurveto
            -1 vlineto
            hintmask 10101010
            -91.8399963379 hlineto
            hintmask 01101010
            -68.1999969482 187.380004883 66.3300018311 vlineto
            hintmask 10110010
            -77.9700012207 28.6699981689 -39.9299926758 60.3300018311 136.61000061 vvcurveto
            147.259994507 64.8399963379 66.8399963379 98.9700012207 101.220001221 61.9700012207 -66.7100067139 -146.380004883 -129.550003052 -35.7100067139 -68.2899932861 -81.3200073242 -28.7799987793 vhcurveto
            hintmask 10110100
            -66.3200073242 187.380004883 188 callsubr
            -96.9299926758 1 vlineto
            hintmask 10110010
            83.9700012207 41.8399963379 31.0899963379 68.1600036621 113.740005493 vvcurveto
            175.199996948 -98.4799957275 105.089996338 -153.199996948 vhcurveto
            endchar
          </CharString>
          <CharString index="20">
            674 -52 callsubr
            57.3500061035 -36.3500061035 -21 276.800003052 58.2299957275 20.0300140381 57.3600006104 220.319992065 57.3600006104 hstemhm
            46.9400024414 74.5399932861 168.970001221 279 callsubr
            86.5200042725 75.4299926758 168.970001221 74.5399932861 40.2300109863 279 callsubr
            168.970001221 74.5399932861 hintmask 1010111111100000
            671.320007324 670.550003052 rmoveto
            -58.9700012207 38.6399993896 rlineto
            hintmask 0101111000000000
            -463.130004883 -699.869995117 58.9700012207 -38.6399993896 rlineto
            -2.2200012207 707.679992676 -93 callsubr
            hintmask 1010000111100000
            406.320007324 -297.710006714 rmoveto
            -93.0899963379 -66.8099975586 -64.7400054932 -102.970001221 -102.839996338 67.3300018311 326 callsubr
            53 callsubr
            93.0899963379 65.9400024414 272 callgsubr
            412 callgsubr
            hmoveto
            516 callgsubr
            -66.8000030518 -64.7400054932 -102.970001221 -102.839996338 67.3200073242 326 callsubr
            53 callsubr
            93.1000061035 512 callgsubr
            272 callgsubr
            -359.160003662 -58.2200012207 rmoveto
            66.4199981689 18.0700073242 -54.7799987793 470 callsubr
            -56.4499969482 -18.0700073242 -53.9100036621 301 callgsubr
            55.6499938965 54.3200073242 221 callsubr
            412 callgsubr
            hmoveto
            66.4199981689 18.0700073242 517 callgsubr
            -54.3300018311 -56.4499969482 -18.0700073242 -53.8999938965 301 callgsubr
            55.6399993896 54.3300018311 221 callsubr
            endchar
          </CharString>
          <CharString index="21">
            vvcurveto
            -56.5 45.5 -42 76 25.5 16.5 2.5 4 20 vhcurveto
            8 65 rlineto
            -5 -23.5 -15.5 -2 -20.5 hhcurveto
            -42 -16 18.5 30.5 return
          </CharString>
          <CharString index="22">
            30 -70.3600006104 110 callgsubr
            615.059997559 65.4600067139 hstemhm
            73.2299957275 81.5200042725 -57.1300048828 83.25 172.380004883 84.1399993896 -58.3800048828 80.6300048828 hintmask 11011000
            383.350006104 171.570007324 rmoveto
            hintmask 11010100
            44.6600036621 29.6799926758 31.6300048828 39.75 48.3500061035 vvcurveto
            78.2200012207 -48.7100067139 36 -106.380004883 36.1300048828 vhcurveto
            -102.419998169 34.5200042725 -21.2599945068 20.2599945068 46.2899932861 vvcurveto
            42.6699981689 39.8999938965 27.5800018311 57.9400024414 54.8699951172 39.6100006104 -13.8699951172 -27 42.1300048828 vhcurveto
            32.5500030518 53.4900054932 rlineto
            31.2200012207 -43.7400054932 -51.3200073242 21.6199951172 -73.1000061035 hhcurveto
            -100.419998169 -81.6699981689 -52.7400054932 -89.1999969482 -44.5599975586 16.7899932861 -29.6699981689 33.6999969482 -24.4199981689 hvcurveto
            hintmask 11101000
            -42.7799987793 -28.6199951172 -32.1000061035 -44.1499938965 -50.7100067139 vvcurveto
            -80.1300048828 50.5099945068 -33.2200012207 105.38999939 -34.5200042725 vhcurveto
            102.380004883 -33.5099945068 21.7400054932 -17.9100036621 -47.7700042725 vvcurveto
            -43.8099975586 -44.1300048828 -25.5800018311 -59.2200012207 -54.3899993896 -42.3800048828 12.1300048828 28 -41 vhcurveto
            -31.6799926758 -57.0899963379 rlineto
            -28.8699951172 41.6499938965 54.7100067139 -20.4900054932 70.4799957275 hhcurveto
            110.910003662 79.1900024414 55.2299957275 88.5800018311 hvcurveto
            hintmask 11011000
            42.9900054932 -17.8500061035 30.0899963379 -36.1799926758 25.0399932861 vhcurveto
            hintmask 11100100
            -228.61000061 151.429992676 rmoveto
            27.2100067139 15.6799926758 31.0399932861 29.2799987793 25.8699951172 vhcurveto
            20.0299987793 -9.05999755859 22.9900054932 -8.85000610352 25.9499969482 -9.33999633789 rrcurveto
            88.9700012207 -31.7799987793 21.3600006104 -19.6699981689 -47.9100036621 vvcurveto
            -27.3600006104 -16.6100006104 -29.3999938965 -29.3699951172 -24.8999938965 vhcurveto
            -22.2599945068 9.83999633789 -25.8500061035 9.44999694824 -29.5 9.74000549316 rrcurveto
            -79.0299987793 26.0599975586 -21.6399993896 19.5200042725 49.5500030518 vvcurveto
            endchar
          </CharString>
          <CharString index="23">
            rmoveto
            hintmask 11101000
            -109.809997559 -72.7400054932 -52.3600006104 -87.6100006104 -58.0299987793 39.6199951172 -47.2299957275 71.2599945068 -12.5099945068 hvcurveto
            hintmask 11110000
            -79.8699951172 -8.61999511719 -52 -38.6100006104 -89.5200042725 vvcurveto
            -98.4799957275 83.2200012207 -56.6199951172 120.550003052 73.7799987793 64.8000030518 23.5200042725 38.6100006104 48.1000061035 vhcurveto
            -40.5200042725 54.1000061035 rlineto
            -29.7799987793 -44.8699951172 -38.6100006104 -18.3800048828 -58.1999969482 hhcurveto
            -73.4499969482 -42.8399963379 37.6399993896 55.2299957275 66 34.1000061035 26.3800048828 84.5800018311 hvcurveto
            56.1300048828 hlineto
            10.0899963379 66.1999969482 rlineto
            -60.6100006104 hlineto
            hintmask 11101000
            -66.8399963379 -41.6799926758 32.1900024414 48.9400024414 52.8000030518 36.8099975586 29.8099975586 67.0899963379 50.1600036621 33.9100036621 -11.5200042725 -22.2599945068 34.8699951172 hvcurveto
            41.6399993896 51.6199951172 rlineto
            hintmask 11110000
            30.0899963379 -42.9700012207 -52.0899963379 18.3899993896 -73.6100006104 hhcurveto
            endchar
          </CharString>
          <CharString index="24">
            rmoveto
            -88 callgsubr
            hintmask 10110000
            177 callsubr
            hintmask 11010000
            127.580001831 -22.1600036621 -53.7400054932 42.5200042725 -91.1600036621 hhcurveto
            7.10000610352 -67.0700073242 rmoveto
            67.0899963379 42.1300048828 -43.0299987793 -160.61000061 28.4199981689 hvcurveto
            -175.970001221 -33.3800048828 -57.0299987793 -35.7100067139 -51.4900054932 hhcurveto
            -70.7100067139 -38.8399963379 62.8000030518 141.259994507 137.580001831 43 73.6799926758 70.8099975586 hvcurveto
            endchar
          </CharString>
          <CharString index="25">
            35.5 25.5 -47.5 58.5 hhcurveto
            return
          </CharString>
          <CharString index="26">
            -325.059997559 129 callgsubr
            330.059997559 -56 callsubr
            -246.059997559 190.289993286 201.320007324 65.3300018311 -201.320007324 176.970001221 hlineto
            endchar
          </CharString>
          <CharString index="27">
            50 136 callsubr
            199.130004883 61.8399963379 173.350006104 114 callsubr
            141 callgsubr
            206.899993896 141 callsubr
            -62.0999908447 165 callgsubr
            hintmask 11110100
            370 298.740005493 rmoveto
            hintmask 11111000
            57.0299987793 12.1300048828 52.3200073242 40.6100006104 69.5200042725 vvcurveto
            99.9700012207 -87.1900024414 43.3800048828 -146.289993286 vhcurveto
            -143.289993286 -564.350006104 168.970001221 hlineto
            hintmask 11110100
            138.059997559 96.1300048828 42.3200073242 118.38999939 93.5099945068 -69.9700012207 33.5500030518 -65.7700042725 10.9700012207 hvcurveto
            -183.419998169 201.029998779 rmoveto
            67.6399993896 hlineto
            hintmask 11111000
            87.8399963379 51.4199981689 -19.1900024414 -65.8099975586 -57.9299926758 -49.1300048828 -30.4199981689 -66.2899932861 hvcurveto
            -91.4799957275 hlineto
            -260.970001221 vmoveto
            199.130004883 99.0899963379 vlineto
            hintmask 11110100
            72.1999969482 59.3800048828 -26.0700073242 -76.0599975586 -77.3899993896 -60 -19.6100006104 -85.5800018311 hvcurveto
            endchar
          </CharString>
          <CharString index="28">
            rmoveto
            39.8000030518 -105.289993286 20.1600036621 -82.8399963379 -98.8699951172 vvcurveto
            -149.740005493 -54.4499969482 -33.0299987793 -53.1900024414 -52.0299987793 -35.9700012207 32.5099945068 91.6499938965 vhcurveto
            185.089996338 vlineto
            -80.6499938965 -11.0899963379 rlineto
            -173.869995117 vlineto
            -102.580001831 -40.1900024414 -21.7100067139 -50.9400024414 -65.3800048828 -39 51.4799957275 141.130004883 vhcurveto
            hintmask 11011100
            86.8399963379 17.7700042725 81.8099975586 40.8399963379 108.509994507 vhcurveto
            -84.1300048828 hlineto
            -29.4799957275 -72.2200012207 -30 -92.7400054932 -122.38999939 vvcurveto
            -180.970001221 80.9299926758 -69.5099945068 96.3899993896 80.1900024414 46.9100036621 36.1300048828 85.5099945068 17.3500061035 vhcurveto
            -84.6399993896 12.3600006104 52.5099945068 -37 71.6199951172 hhcurveto
            98.4199981689 85.1300048828 70.7700042725 179.449996948 hvcurveto
            hintmask 10111100
            120.070007324 -30.8399963379 94.4199981689 -30 73.1300048828 vhcurveto
            endchar
          </CharString>
          <CharString index="29">
            33.5 hlineto
            51 31.5 -18 -52 -45.5 -31.5 -28.5 -52 -34 -29.5 11.5 29.5 78 callgsubr
            hvcurveto
            -42 -38.5 rlineto
            -38.5 34 45.5 -20.5 57 hhcurveto
            96 58.5 56 71 return
          </CharString>
          <CharString index="30">
            -221.929992676 103 callsubr
            -109.419998169 hlineto
            -222.809997559 93 callsubr
            87.6199951172 hlineto
            return
          </CharString>
          <CharString index="31">
            792 -107 callgsubr
            return
          </CharString>
          <CharString index="32">
            86.7400054932 return
          </CharString>
          <CharString index="33">
            315 -52 callsubr
            57.3500061035 -36.3500061035 -21 276.810012817 58.2200012207 20.0299987793 57.3600006104 220.319992065 57.3600006104 hstemhm
            46.9400024414 74.5399932861 168.970001221 279 callsubr
            86.5200042725 279 callsubr
            168.970001221 74.5500030518 hintmask 1001111110000000
            671.320007324 670.550003052 rmoveto
            -58.9700012207 38.6399993896 rlineto
            hintmask 0101111110000000
            -463.130004883 -699.869995117 58.9700012207 -38.6399993896 rlineto
            -2.2200012207 707.679992676 -93 callsubr
            hintmask 1011111110000000
            406.320007324 -297.710006714 rmoveto
            -93.0899963379 -66.8099975586 -64.7400054932 -102.970001221 -102.839996338 67.3300018311 326 callsubr
            53 callsubr
            93.0899963379 65.9400024414 272 callgsubr
            -58.2200012207 vmoveto
            66.4199981689 18.0599975586 -54.7799987793 470 callsubr
            -56.4499969482 -18.0599975586 -53.9100036621 430 callgsubr
            429 callgsubr
            344 callsubr
            458 callgsubr
          </CharString>
          <CharString index="34">
            rmoveto
            -196.5 111.5 -37.5 -71 208 -86 rlineto
            return
          </CharString>
          <CharString index="35">
            rmoveto
            -85 hlineto
            -141.100006104 -358.839996338 -158.380004883 358.839996338 341 callsubr
            191.550003052 -408.839996338 rlineto
            29.7700042725 hlineto
            -29.5800018311 -69.5500030518 -30.1900024414 -22.2200012207 -79.1000061035 -14.0299987793 12.3600006104 -59.5800018311 rcurveline
            113.63999939 16.4199981689 48.2299957275 36.3200073242 47.5099945068 115.130004883 rrcurveto
            endchar
          </CharString>
          <CharString index="36">
            -79 callgsubr
            -75 callsubr
            return
          </CharString>
          <CharString index="37">
            563.479995728 return
          </CharString>
          <CharString index="38">
            rmoveto
            -152.160003662 -141.740005493 -122.070007324 -232.770004272 -237.740005493 111.380004883 -119 170.100006104 92.6100006104 71.1000061035 23.2200012207 36.6199951172 62.2200012207 hvcurveto
            330.929992676 -220.669998169 vlineto
            10.0899963379 -70.8000030518 rlineto
            124.710006714 -215.38999939 hlineto
            -23.2599945068 -39.7700042725 -45.7400054932 -9.63999938965 -48.4499969482 hhcurveto
            -124.229995728 -71.2599945068 84.2200012207 200.839996338 206.36000061 102.490005493 76.8000030518 101.059997559 62.1300048828 41.5200042725 -16.8699951172 -38.7400054932 48 hvcurveto
            344 callgsubr
            53.2299957275 rlineto
            47.9700012207 -58.2200012207 268 callgsubr
          </CharString>
          <CharString index="39">
            146 callsubr
            hintmask 10011100
            -85.0299987793 9.83999633789 -104.190002441 2 -19.1000061035 vhcurveto
            -292.800003052 309 callsubr
            -113.029998779 hlineto
            hintmask 01101100
            -16 callgsubr
          </CharString>
          <CharString index="40">
            388 112.380004883 69.8200073242 269.289993286 198 callgsubr
            113 callgsubr
            85 605.830001831 85.0099945068 vstem
            640.419998169 520.550003052 rmoveto
            -90.4700012207 -59.0899963379 -50.8200073242 -78.4499969482 -45.2200012207 hvcurveto
            77.7299957275 -42.8800048828 -69.9600067139 51.5399932861 -81.2200012207 hhcurveto
            -130 -64 -93.5500030518 -110.36000061 -109.61000061 63.7700042725 -94.6499938965 129.229995728 92.3000030518 59.7400054932 52.8000030518 76.75 447 callgsubr
            hvcurveto
            -77.8899993896 42.8800048828 70.1399993896 -51.6499938965 81.3300018311 hhcurveto
            130 64 93.5500030518 110.350006104 109.619995117 -63.7799987793 94.6399993896 -129.220001221 hvcurveto
            -388.839996338 -338.350006104 rmoveto
            263 callsubr
            -44.5500030518 48.8999938965 85.5500030518 86.9400024414 45.4199981689 47.8999938965 63.5800018311 85.9299926758 47.7100067139 -78.6199951172 -52.3300018311 25.0299987793 hvcurveto
            -78.6199951172 -38.6999969482 -41.9400024414 -59.7100067139 -78.0399932861 hhcurveto
            387.839996338 -0.75 rmoveto
            -86.3099975586 -47.75 79.3099975586 52.3300018311 -24.9400024414 hvcurveto
            80.2200012207 40.7599945068 41.7200012207 57.4299926758 76.5200042725 hhcurveto
            120 callsubr
            44.5500030518 -48.9100036621 -85.5500030518 -86.9299926758 -45.4199981689 -47.9100036621 -63.5800018311 hvcurveto
            endchar
          </CharString>
          <CharString index="41">
            -63.9900054932 149.669998169 rmoveto
            43 24 -23.5 -34.5 -31.1000061035 -14.2200012207 -21.3399963379 -37.2200012207 -21.1199951172 hvcurveto
            -14.0599975586 5.05999755859 rlineto
            -46.5 15 -23 17 36 vvcurveto
            38 26.5 20.5 399 callsubr
            return
          </CharString>
          <CharString index="42">
            -1.5 -328 rmoveto
            -49 -32 24.5 42 40 18.1799926758 27.8899993896 41.1799926758 18.5899963379 hvcurveto
            21.1399993896 -7.47999572754 rlineto
            61 -20.5 22.5 -17.5 -41.5 vvcurveto
            -40 369 callgsubr
            -51.5 vhcurveto
            endchar
          </CharString>
          <CharString index="43">
            64.5 return
          </CharString>
          <CharString index="44">
            -688.089996338 return
          </CharString>
          <CharString index="45">
            27 439 callgsubr
            246.330001831 69.8000030518 232.100006104 -51 callsubr
            return
          </CharString>
          <CharString index="46">
            39 407 callgsubr
            210.869995117 56.7400054932 149.319992065 197 callsubr
            hstem
            107 callgsubr
            vstem
            445.61000061 365.029998779 rmoveto
            109.229995728 -56.7100067139 63.5800018311 -125.059997559 -58.1000061035 301 callsubr
            -63.3200073242 vhcurveto
            21.1900024414 -61.7100067139 rlineto
            18.2599945068 53.4900054932 48.6100006104 10.2599945068 39.9100036621 hhcurveto
            76.2200012207 36.3600006104 384 callgsubr
            -41.5800018311 -85.5200042725 vlineto
            -143.899993896 -84.6199951172 303 callgsubr
            62.4900054932 326 callsubr
            104.220001221 65.5599975586 55.7200012207 24.7299957275 55.8999938965 -26 callsubr
            -6.99000549316 19.1999969482 58.4499969482 rcurveline
            -27.3899993896 10.2599945068 -16.6100006104 15.5099945068 48.8399963379 vvcurveto
            -213.039993286 -69.3500061035 rmoveto
            -62.1900024414 -33.3300018311 34.6699981689 64.3300018311 74.7100067139 51.4499969482 37.1600036621 98.8099975586 hvcurveto
            74.2899932861 -125.919998169 hlineto
            -56.3000030518 -30.6100006104 -41.1000061035 -28.6499938965 -57.3200073242 hhcurveto
            endchar
          </CharString>
          <CharString index="47">
            53.5 -23 rlineto
            240 148.5 rmoveto
            -72 37.5 -84.5 -168 53.5 -23 rlineto
            return
          </CharString>
          <CharString index="48">
            rmoveto
            -68.3300018311 17.7100067139 rlineto
            hintmask 10011100
            -32.9700012207 -103.380004883 rlineto
            hintmask 01101100
            3.33999633789 -17.7100067139 -18.6499938965 1.69000244141 -19.4799957275 hhcurveto
            -150.059997559 -102.229995728 -105.619995117 -186 -130.86000061 49.2200012207 -89.9499969482 80.3500061035 -42.7700042725 hvcurveto
            -34.2799987793 -104.029998779 68.3300018311 -18.4499969482 30.9799957275 99.5099945068 rlineto
            hintmask 10101100
            -3.67999267578 18.2799987793 19.2700042725 -1.86000061035 20.1399993896 hhcurveto
            151.100006104 373 callsubr
            106.61000061 186.490005493 132.770004272 -49.3699951172 89.1300048828 -81.1300048828 41.6399993896 hvcurveto
            -121.179992676 -40.1199951172 rmoveto
            15.1399993896 14.2599945068 -1.2200012207 -2.63000488281 13.3099975586 hvcurveto
            -135.309997559 -420.320007324 rlineto
            -44.4100036621 30.7299957275 -26.7899932861 61.6499938965 107.369995117 vvcurveto
            160.320007324 64.8399963379 64.1000061035 98.9700012207 vhcurveto
            -449.320007324 vmoveto
            -15.2400054932 -14.5 1.36999511719 2.96000671387 -13.6000061035 hvcurveto
            134.899993896 421.990005493 rlineto
            390 callsubr
            -29.7100067139 25.9299926758 -61.3699951172 -109.339996338 vvcurveto
            378 callsubr
            vhcurveto
            endchar
          </CharString>
          <CharString index="49">
            -162.479995728 -290.580001831 rlineto
            325 callgsubr
            148 callgsubr
            -83.1300048828 -290.580001831 325 callgsubr
            hlineto
            -160.490005493 148 callgsubr
            rlineto
            -93.3500061035 hlineto
            183.289993286 -322.740005493 -201.779998779 -365.350006104 rlineto
            95.8399963379 hlineto
            175.490005493 325.970001221 rlineto
            85.7100067139 -325.970001221 124 callsubr
            325.970001221 84.7100067139 hlineto
            174.61000061 -325.970001221 rlineto
            return
          </CharString>
          <CharString index="50">
            72 -50 callsubr
            70.8099975586 174.520004272 56.7400054932 93.0899963379 57.6199951172 167.38999939 289 callgsubr
            111.539993286 89.3699951172 vstem
            419.190002441 233.580001831 rmoveto
            12.9700012207 56.7400054932 rlineto
            -231.25 93.0899963379 250.509994507 hlineto
            13.9700012207 57.6199951172 rlineto
            -259.210006714 hlineto
            116.289993286 25.2899932861 59.7899932861 51.1000061035 80.4499969482 hhcurveto
            325 callsubr
            37.8699951172 -13.8699951172 -29.9100036621 48.6499938965 hvcurveto
            33.2899932861 58.1000061035 rlineto
            36.7400054932 -54.4900054932 -56.5800018311 18.8699951172 -67.9700012207 hhcurveto
            -123.630004883 -97.5299987793 -84.1199951172 -153.199996948 -31.7400054932 hvcurveto
            -73.9100036621 hlineto
            -13.9700012207 -57.6199951172 rlineto
            83.9700012207 -93.0899963379 -70 hlineto
            -13.9700012207 -56.7400054932 rlineto
            86.6699981689 hlineto
            -160.419998169 24.9400024414 88.3399963379 -84.9100036621 136.830001831 hhcurveto
            62.0899963379 45.8699951172 15.8699951172 22.3899993896 44.3600006104 286 callsubr
            -39.5200042725 -41.9700012207 -19.7400054932 -58.2599945068 hhcurveto
            -100.529998779 -55.4100036621 51.7100067139 122.800003052 -17.3399963379 hvcurveto
            endchar
          </CharString>
          <CharString index="51">
            65.4499969482 return
          </CharString>
          <CharString index="52">
            688.089996338 return
          </CharString>
          <CharString index="53">
            68 21 -21 176.350006104 70.8099975586 368.899993896 72.0299987793 0 -20 return
          </CharString>
          <CharString index="54">
            695 722.5 rmoveto
            -54.5 27 -407.5 -799 55.5 -27 rlineto
            return
          </CharString>
          <CharString index="55">
            -11.7400054932 return
          </CharString>
          <CharString index="56">
            69.9299926758 return
          </CharString>
          <CharString index="57">
            -11.75 return
          </CharString>
          <CharString index="58">
            63.5 -0.5 25.5 -14.5 -28 vvcurveto
            -29.5 -22.5 105 callsubr
            -28.5 -26 -18.5 6 10 -18 vhcurveto
            return
          </CharString>
          <CharString index="59">
            96 -52 callsubr
            69.8000030518 -37.0599975586 -21 460.770004272 65.3300018311 523 callsubr
            -9.80999755859 -20 hstemhm
            105.809997559 84 210.490005493 499 callgsubr
            hintmask 10101110
            554 64.3200073242 rmoveto
            -4.13000488281 -10.2599945068 -11.2599945068 -2.13000488281 -12.8699951172 hhcurveto
            -25.6799926758 -9.63999938965 14.6399993896 29.5500030518 hvcurveto
            636.38999939 vlineto
            -84 345 callgsubr
            rlineto
            -0.539993286133 vlineto
            hintmask 01110110
            13.3500061035 -41.7100067139 -34.3200073242 7.08999633789 -48.8399963379 hhcurveto
            -113.380004883 -56.2299957275 416 callgsubr
            -84.5099945068 -65.3300018311 84.5099945068 -460.770004272 84 460.770004272 468 callsubr
            332 callsubr
            65.3300018311 rlineto
            -130.320007324 75.5800018311 hlineto
            53.4499969482 23.4499969482 25.2599945068 67.7799987793 45.5 32.3800048828 -5.72999572754 -12.4199981689 41.3800048828 vhcurveto
            -561.589996338 vlineto
            hintmask 10110110
            199 callsubr
            endchar
          </CharString>
          <CharString index="60">
            145 callsubr
            rmoveto
            -31 -23 -23 -30 -29.5 23 -23 31 30 23 23 29.5 30 -23 23 -30 hvcurveto
            67 callgsubr
            -30 -23 -23 -30 -29.5 23 -23 30 30.5 23 23 29.5 30 -23 23 398 callsubr
            return
          </CharString>
          <CharString index="61">
            782 -103 callgsubr
            return
          </CharString>
          <CharString index="62">
            -54.2100067139 -21.3500061035 -32.0399932861 -34.0099945068 -52 vvcurveto
            -67.5 59 -51 95 95 61.5 51 137 callgsubr
            51.3200073242 -30.1499938965 35.3500061035 -59.8699951172 25.6600036621 vhcurveto
            return
          </CharString>
          <CharString index="63">
            -21 140.089996338 66.3300018311 289.259994507 67.8000030518 return
          </CharString>
          <CharString index="64">
            -19 166.5 67.5 -6.5 188 callgsubr
            57 67 -6 188 callgsubr
            hstemhm
            39 406.5 hintmask 01011000
            169.5 15 callgsubr
            36.5 -61 76.5 202 callgsubr
            22 hvcurveto
            -56 -46 callgsubr
            36.5 -61 76.5 hhcurveto
            137 callgsubr
            37.5 46.5 40.5 22 hvcurveto
            -56 29 rlineto
            78 callgsubr
            -16.5 -17.5 -21 330 callgsubr
            60 423 callsubr
          </CharString>
          <CharString index="65">
            11 9 -9 -11 hvcurveto
            -74 vlineto
            -11 -9 -9 -11 vhcurveto
            -74 hlineto
            -11 -9 9 11 hvcurveto
            74 vlineto
            11 9 9 11 vhcurveto
            return
          </CharString>
          <CharString index="66">
            243.740005493 573.220001221 -104 callgsubr
            return
          </CharString>
          <CharString index="67">
            hstem
            -71 callsubr
            return
          </CharString>
          <CharString index="68">
            38 callsubr
            568.230010986 -14 callgsubr
            return
          </CharString>
          <CharString index="69">
            rmoveto
            141.800003052 -237.350006104 rlineto
            99.8399963379 hlineto
            -160.669998169 252.580001831 rlineto
            83.7200012207 25.4900054932 43.3300018311 44.8099975586 79.5299987793 vvcurveto
            106.449996948 -75.9400024414 54.6199951172 -150.059997559 vhcurveto
            -159.38999939 hlineto
            hintmask 10111100
            334 callsubr
            237.36000061 vlineto
            62.8399963379 vmoveto
            199.580001831 74 vlineto
            97.2599945068 42.5200042725 -29.9400024414 -67.4199981689 -74.4199981689 -47.5500030518 -27.8000030518 -83.7400054932 hvcurveto
            endchar
          </CharString>
          <CharString index="70">
            -153 213 -68.7799987793 68.7799987793 -48.25 -21 21.4700012207 -21 476.779998779 67.6600036621 -67.6600036621 214.990005493 -147.260009766 -20 hstemhm
            87 90.5 103.5 72 hintmask 0000000000000000
            hintmask 0100100110000000
            433 103.5 rmoveto
            -29 -37.5 -32 -14.5 -45 hhcurveto
            -86 -55 60 140.5 140 55.5 67.5 315 callsubr
            45 33.5 -13 -28 34.5 hvcurveto
            41.5 54.5 -37.6199951172 31.7400054932 -38.2400054932 16.6900024414 -44.1399993896 5.72999572754 rlinecurve
            hintmask 0001010110000000
            147.330001831 -72 vlineto
            hintmask 0010001110000000
            -147.259994507 vlineto
            -120.86000061 -16.5700073242 -73.1399993896 -106.160003662 -154.509994507 vvcurveto
            -155.190002441 73.3300018311 -96.8500061035 119.669998169 -15.6999969482 vhcurveto
            hintmask 1000001110000000
            -143.75 73 vlineto
            hintmask 0001001110000000
            144.220001221 vlineto
            44.6499938965 6.61999511719 40.0899963379 18.5800018311 35.7599945068 29.0800018311 rrcurveto
            endchar
          </CharString>
          <CharString index="71">
            rmoveto
            -200.740005493 hlineto
            -46.0500030518 189.419998169 rlineto
            203.5 131 callsubr
            -219.380004883 hlineto
            -43.2400054932 177.839996338 rlineto
            260.259994507 hlineto
            9.22999572754 128 callsubr
            -397.740005493 hlineto
            -235.839996338 -563.479995728 rlineto
            87.4799957275 hlineto
            55.1699981689 139.449996948 rlineto
            228.220001221 hlineto
            33.7100067139 -139.449996948 rlineto
            265.419998169 hlineto
            -315.160003662 205.770004272 rmoveto
            -185.949996948 hlineto
            115.429992676 291.779998779 rlineto
            endchar
          </CharString>
          <CharString index="72">
            30 69 callgsubr
            -55 callsubr
            -20 hstemhm
            6.28999328613 521.350006104 hintmask 01110000
            527.63999939 hmoveto
            -210.899993896 371.740005493 186.740005493 316.350006104 rlineto
            -93.2299957275 hlineto
            -143.740005493 -263.509994507 -143.130004883 263.509994507 rlineto
            -98.5800018311 hlineto
            188.869995117 -320.839996338 rlineto
            hintmask 10110000
            -207.380004883 -367.259994507 rlineto
            93.2200012207 hlineto
            165.259994507 310.809997559 rlineto
            hintmask 01110000
            164.289993286 -310.809997559 rlineto
            endchar
          </CharString>
          <CharString index="73">
            67.1900024414 return
          </CharString>
          <CharString index="74">
            rmoveto
            66.9299926758 -359.869995117 -68.9299926758 267.509994507 vlineto
            -297.899993896 -428.36000061 rlineto
            -66.1900024414 379.869995117 242 callsubr
            109 callsubr
            rlineto
            -293 hlineto
            endchar
          </CharString>
          <CharString index="75">
            19 0 70.8099975586 253.380004883 325 callsubr
            229.36000061 193 callsubr
            124.830001831 368 callgsubr
            207.970001221 324.190002441 rmoveto
            209.419998169 325 callsubr
            -209.419998169 115.229995728 214 callsubr
            66.8399963379 51.0299987793 33.2599945068 -17.5200042725 -37.2599945068 31.3899993896 vhcurveto
            55.8399963379 42.5200042725 307 callgsubr
            -56.1999969482 25.6100006104 -71.8399963379 hhcurveto
            -119.929992676 -65.0700073242 -78.6100006104 -105.199996948 hvcurveto
            -114.479995728 222 callsubr
            -127.330001831 169 callsubr
            -25.6399993896 vhcurveto
            375 callsubr
            414.940002441 vlineto
            10.0899963379 70.8099975586 rlineto
            -321.929992676 hlineto
            48.8699951172 26.6100006104 200 callgsubr
          </CharString>
          <CharString index="76">
            101.580001831 -10.3800048828 82.6399993896 -15.6199951172 85.5800018311 vhcurveto
            endchar
          </CharString>
          <CharString index="77">
            116 82 callsubr
            67.1799926758 202.61000061 57.4900054932 189.229995728 67.1999969482 113 callgsubr
            87.9499969482 329.669998169 86.3399963379 vstem
            373 callgsubr
            245 callsubr
            -150.070007324 -102.220001221 -108.220001221 -183.649993896 -188.220001221 321 callgsubr
            346 callgsubr
            186.100006104 187.509994507 -101.089996338 103.36000061 -150.580001831 387 callsubr
            93.4799957275 62.2299957275 -56.8899993896 -132.339996338 8.9700012207 hvcurveto
            -329.020004272 hlineto
            132.460006714 9.42999267578 63.6999969482 56.7700042725 91.2100067139 hhcurveto
            -449.330001831 vmoveto
            -92.6199951172 -66.3899993896 59.1900024414 143.419998169 -6.08999633789 hvcurveto
            330.429992676 hlineto
            -143.660003662 -6.02000427246 -63.4199981689 -58.9499969482 -95.8999938965 hhcurveto
            endchar
          </CharString>
          <CharString index="78">
            834.5 rmoveto
            -37 71 -197 -104.5 22 -45 rlineto
            return
          </CharString>
          <CharString index="79">
            -55 callsubr
            -87.6100006104 160 callsubr
            endchar
          </CharString>
          <CharString index="80">
            526.089996338 return
          </CharString>
          <CharString index="81">
            36.7100067139 hvcurveto
            14.1900024414 -52.3800048828 32.7200012207 -21.2599945068 51.2299957275 return
          </CharString>
          <CharString index="82">
            -14.5 19.5 31.5 -9 37.5 hhcurveto
            142 callgsubr
            54 33.5 63.5 hvcurveto
            return
          </CharString>
          <CharString index="83">
            12 21 -21 167 118 callsubr
            217.449996948 479 callsubr
            15 484.520004272 vstem
            422.770004272 448.160003662 rmoveto
            76.75 114 callsubr
            -68.2400054932 hlineto
            20.4700012207 155.350006104 rlineto
            -72.3300018311 hlineto
            -20.4600067139 -155.350006104 rlineto
            -159.940002441 hlineto
            20.4700012207 155.350006104 rlineto
            -72.1999969482 hlineto
            -20.4600067139 -155.350006104 rlineto
            -74.8300018311 280 callgsubr
            110 callgsubr
            hlineto
            -28.6399993896 -217.449996948 rlineto
            -74.6799926758 -63.7100067139 66.2899932861 hlineto
            -22 -167 rlineto
            72.1999969482 hlineto
            21.9900054932 167 rlineto
            159.940002441 hlineto
            -22 -167 rlineto
            72.3300018311 hlineto
            21.9900054932 167 rlineto
            76.7799987793 118 callsubr
            -68.3899993896 hlineto
            -43.6799926758 217.449996948 rmoveto
            -28.6399993896 -217.449996948 rlineto
            444 callgsubr
            hlineto
            28.6399993896 217.449996948 rlineto
            endchar
          </CharString>
          <CharString index="84">
            -39 callsubr
            50 callgsubr
            return
          </CharString>
          <CharString index="85">
            -21 17 callsubr
            return
          </CharString>
          <CharString index="86">
            367 callsubr
            282 callgsubr
            566.349990845 404 callgsubr
            341.509994507 699.839996338 rmoveto
            377 callsubr
            -231.61000061 120.220001221 -124.619995117 165.070007324 91.0599975586 65.1999969482 36.5800018311 38.8699951172 37.8999938965 hvcurveto
            -44.2599945068 56.1000061035 rlineto
            -29.6499938965 -39.2599945068 -41.6100006104 -28.3500061035 418 callgsubr
            81.6100006104 219 callsubr
            210.449996948 89.7100067139 73.2200012207 149 callgsubr
          </CharString>
          <CharString index="87">
            rmoveto
            -36.2899932861 -27.6799926758 -28.6699981689 -35.2899932861 345 callsubr
            27.6799926758 -28.6799926758 36.2899932861 37.2899932861 27.5500030518 28.6799926758 389 callsubr
            35.2899932861 -27.5500030518 28.6699981689 -37.2899932861 hvcurveto
            endchar
          </CharString>
          <CharString index="88">
            127 callsubr
            179 callsubr
            hstem
            229 callsubr
            vstem
            286.61000061 216 callsubr
            -141.059997559 -86.8699951172 -110.970001221 -168.130004883 -170 87.8699951172 -100.490005493 140.320007324 60.4900054932 52.2200012207 20.1300048828 37.3600006104 390 callsubr
            hvcurveto
            73 callgsubr
            -14.5200042725 -45.0299987793 hhcurveto
            -85.8399963379 -55.2200012207 304 callgsubr
            55.3500061035 67.3200073242 85.8399963379 44.9100036621 33.3800048828 -13.2599945068 -28 34.6199951172 hvcurveto
            41.3800048828 312 callgsubr
            40.2299957275 338 callgsubr
          </CharString>
          <CharString index="89">
            -56.1699981689 rmoveto
            -170.330001831 520 callsubr
            -218.160003662 -147.710006714 37.0700073242 -81.2899932861 91.6699981689 -48.6499938965 268 callsubr
            33.3300018311 278 callgsubr
            170.61000061 vvcurveto
            192.36000061 77.8399963379 84.6100006104 118.350006104 302 callgsubr
            510 callsubr
            444 callgsubr
            -44.5800018311 -85.4199981689 -96.4499969482 -33.4199981689 vhcurveto
            hintmask 11101000
            -73.4199981689 211.130004883 282 callgsubr
            -112.710006714 vlineto
            hintmask 11100100
            100.089996338 54.5800018311 34.6199951172 79.5500030518 144.509994507 252 callsubr
            124.490005493 380 callsubr
          </CharString>
          <CharString index="90">
            rmoveto
            -91.8399963379 -73.3200073242 -28.6199951172 -55.7400054932 -64 hvcurveto
            45 -53.4799957275 rlineto
            39.0599975586 50.9299926758 57.7400054932 27.1000061035 72 hhcurveto
            113.25 68.9600067139 -68.1399993896 -176.990005493 6.02000427246 hvcurveto
            -449.929992676 hlineto
            372 callsubr
            -17.3600006104 -0.869995117188 -18.5800018311 -12.8699951172 vvcurveto
            -224.259994507 96.5099945068 -121.710006714 173.779998779 157.089996338 116.199996948 114.36000061 251.059997559 236.330001831 -106.710006714 109.839996338 -168.940002441 vhcurveto
            -0.869995117188 -641.649993896 rmoveto
            -107.869995117 -70.4499969482 73.8699951172 181.160003662 -2.61000061035 hvcurveto
            367.130004883 hlineto
            -182.789993286 -8.33999633789 -71.1999969482 -72.2400054932 -106.660003662 hhcurveto
            endchar
          </CharString>
          <CharString index="91">
            82 callsubr
            -18 callgsubr
            return
          </CharString>
          <CharString index="92">
            440 callsubr
            61.4199981689 47.5800018311 70.1300048828 8.13000488281 hvcurveto
            -55.9700012207 11.9700012207 rlineto
            -39.2299957275 -13.7400054932 -31.1300048828 -25.7400054932 -47 hhcurveto
            -47 -28.5099945068 25.7400054932 39.2299957275 -13.7400054932 hvcurveto
            -55.9700012207 -11.9700012207 rlineto
            -70.1300048828 8.13000488281 59.6699981689 -47.5800018311 381 callgsubr
          </CharString>
          <CharString index="93">
            141 callsubr
            vstem
            351.479995728 244 callgsubr
            -152.160003662 -141.740005493 -122.070007324 -232.770004272 -237.740005493 111.38999939 -119 170.089996338 92.6199951172 71.0899963379 23.2200012207 36.6199951172 62.2299957275 hvcurveto
            330.929992676 -220.679992676 vlineto
            10.1000061035 -70.8000030518 rlineto
            124.710006714 -215.38999939 hlineto
            -23.2599945068 -39.7799987793 -45.7400054932 -9.63999938965 -48.4499969482 hhcurveto
            -124.220001221 -71.2599945068 84.2200012207 200.839996338 206.36000061 102.479995728 76.8000030518 101.070007324 62.1300048828 41.5099945068 -16.8699951172 -38.7400054932 48 hvcurveto
            51.2299957275 53.2299957275 rlineto
            47.9700012207 -58.2299957275 173 callsubr
            return
          </CharString>
          <CharString index="94">
            370 callsubr
            -36 41.5 -126 -81 -124.5 81 -37 -41.5 134.5 -108 rlineto
            55.5 hlineto
            return
          </CharString>
          <CharString index="95">
            57.5800018311 return
          </CharString>
          <CharString index="96">
            204.5 return
          </CharString>
          <CharString index="97">
            36.5 -36 callgsubr
            return
          </CharString>
          <CharString index="98">
            rmoveto
            -59.5500030518 -26.3200073242 -45.5500030518 -20.3300018311 -133.199996948 2.74000549316 rrcurveto
            -115.61000061 -84.6799926758 -75.0899963379 -107.229995728 -68.4299926758 27.8999938965 -46.4199981689 60.8500061035 -31.6699981689 hvcurveto
            return
          </CharString>
          <CharString index="99">
            rmoveto
            208 86 -37.5 71 -196.5 -111.5 rlineto
            return
          </CharString>
          <CharString index="100">
            124.190002441 74.1000061035 73.8399963379 103.61000061 63.5899963379 -31.7100067139 44.0800018311 -60.3899993896 27.5500030518 hvcurveto
            60.7799987793 0.110000610352 48.9700012207 2.38000488281 42.0599975586 13.2299957275 rrcurveto
            return
          </CharString>
          <CharString index="101">
            -292.070007324 -593.869995117 rlineto
            6.36000061035 59.1300048828 5.47999572754 72.5500030518 119.220001221 vvcurveto
            342.970001221 -23 callgsubr
            111.029998779 vlineto
            return
          </CharString>
          <CharString index="102">
            rmoveto
            65 45.5 45.5 74 callsubr
            58 -45.5 45.5 -65 -65 -45.5 -45.5 -58 192 callsubr
            45.5 -45.5 65 hvcurveto
            159.5 vmoveto
            33.5 20 -21 -35.5 -35 -21 -21.5 145 callsubr
            -33.5 -20 145 callgsubr
            35 35.5 20 21 33.5 hvcurveto
            return
          </CharString>
          <CharString index="103">
            -19 253.229995728 67.4499969482 -6.35998535156 66.5800018311 hstemhm
            38.8699951172 406.380004883 hintmask 01100000
            169.669998169 380.899993896 rmoveto
            -70.7400054932 -38.5500030518 -51.7400054932 -40.3500061035 -21.5099945068 hvcurveto
            55.7100067139 -28.5500030518 rlineto
            27.6100006104 16.6399993896 17.4900054932 26.4499969482 35.7400054932 hhcurveto
            hintmask 10100000
            40.0299987793 36.3200073242 -61.0899963379 76.6499938965 hhcurveto
            68.7400054932 37.5500030518 46.5099945068 40.3600006104 21.5099945068 hvcurveto
            -55.7100067139 29.4199981689 rlineto
            -27.6199951172 -16.6399993896 -17.3600006104 -21.2200012207 -32.8699951172 hhcurveto
            hintmask 01100000
            -42.7700042725 -35.6799926758 60.2200012207 -74.5500030518 hhcurveto
            endchar
          </CharString>
          <CharString index="104">
            78 94 callgsubr
            460.779998779 131 callsubr
            153.41998291 193 callsubr
            105.800003052 84 209.489990234 84 vstem
            280.970001221 244 callsubr
            -121.550003052 -53.6199951172 -61.5200042725 -88.2200012207 hvcurveto
            -72.6199951172 -84.5099945068 349 callgsubr
            84.5099945068 -460.779998779 84 460.779998779 209.490005493 -460.779998779 84 526.100006104 -293.490005493 72.7100067139 vlineto
            53.7400054932 21.8399963379 26.9700012207 72.0700073242 42.6699981689 37.6499938965 -9.91000366211 -16.3800048828 33.7700042725 vhcurveto
            29.4199981689 58.9700012207 rlineto
            21.8699951172 -42.6100006104 -44.7799987793 14.3800048828 -58.8699951172 hhcurveto
            endchar
          </CharString>
          <CharString index="105">
            20 callsubr
            -19 callgsubr
            53 callgsubr
            vstem
            187.449996948 hmoveto
            -55 callgsubr
          </CharString>
          <CharString index="106">
            120 21 -21 261.839996338 57 callsubr
            232.710006714 -20 hstem
            173 callgsubr
            vstem
            return
          </CharString>
          <CharString index="107">
            19 384.350006104 57.6100006104 199.38999939 58.4900054932 hstem
            58.2200012207 71.0700073242 179.549987793 71.0599975586 vstem
            219 384.350006104 rmoveto
            83.2200012207 77.6799926758 56.1300048828 100.679992676 101.059997559 -77.6799926758 57.6199951172 -83.2200012207 -81.4499969482 -79.3300018311 -56.8699951172 -100.809997559 -101.320007324 79.3300018311 -56.4900054932 81.4499969482 hvcurveto
            57.6100006104 vmoveto
            -47.0700073242 -42.6399993896 33.3300018311 66.8699951172 67 42.6399993896 32.1900024414 47.0700073242 48.8399963379 41 -33.9299926758 -66.2599945068 -65.8699951172 -41 -33.3300018311 -48.8399963379 hvcurveto
            endchar
          </CharString>
          <CharString index="108">
            24 101 callsubr
            102.580001831 84 hintmask 01110000
            327 callgsubr
            310 callgsubr
            -84 -563.479995728 vlineto
            183.350006104 307.089996338 rmoveto
            225.029998779 256.38999939 rlineto
            -94.2200012207 hlineto
            -226.419998169 -261.619995117 rlineto
            hintmask 10110000
            234.929992676 -301.869995117 rlineto
            101.449996948 hlineto
            endchar
          </CharString>
          <CharString index="109">
            116 0 188 callsubr
            -68.1900024414 280 callsubr
            437.830001831 417 callgsubr
            -69.4799957275 187.380004883 92.0699920654 187.380004883 -70.3500061035 45 callgsubr
            hintmask 10110010
            return
          </CharString>
          <CharString index="110">
            100.259994507 -54.7100067139 60.6100006104 -96.6100006104 return
          </CharString>
          <CharString index="111">
            rmoveto
            -81.5 -65 -53 -86.5 -84.5 54 -50.5 67.5 43.1399993896 33.0299987793 18.4700012207 294 callgsubr
            20.8500061035 hvcurveto
            -9.80999755859 -87.3300018311 -64.1900024414 -43.4499969482 -110.520004272 -28.4900054932 15 -52 rcurveline
            167 41 78 142 callgsubr
            170.5 vvcurveto
            97 -49.5 65 -98 vhcurveto
            -6.5 -221.5 rmoveto
            -39.5 -29 24.5 58 55.5 262 callgsubr
            30 47.5 51.4499969482 22.8500061035 -34.4900054932 -86.2899932861 -0.979995727539 hvcurveto
            -30.0800018311 -20.7599945068 -26.6900024414 -17.1399993896 -33.3699951172 hhcurveto
            endchar
          </CharString>
          <CharString index="112">
            175 21 -21 325.839996338 83 callgsubr
            290.580001831 -20 hstem
            93 callgsubr
            vstem
            return
          </CharString>
          <CharString index="113">
            401.5 rmoveto
            -362.5 170.5 -76 callgsubr
            -69.5 325 -143.5 -325 -145.5 30.5 -67.5 362.5 171 rlineto
            -382.5 -246 rmoveto
            -71 return
          </CharString>
          <CharString index="114">
            rmoveto
            -27 callgsubr
            return
          </CharString>
          <CharString index="115">
            -64 callsubr
            -36 -20 39 -64 callsubr
            -29.5 -20 hstemhm
            return
          </CharString>
          <CharString index="116">
            rmoveto
            -84 -480.63999939 hlineto
            -73.5200042725 -16.5200042725 -32.9700012207 -78 -30.8999938965 vhcurveto
            22.0700073242 -60.3300018311 rlineto
            98 30.6799926758 58.4499969482 44.0599975586 120.100006104 vvcurveto
            endchar
          </CharString>
          <CharString index="117">
            -211 137 callgsubr
            925 68 hstem
            232 294 callsubr
            vstem
            379 850.5 rmoveto
            -91.5 -55.5 -49 -96.5 hvcurveto
            -776.5 vlineto
            -45.5 -23 -25.5 -43.5 78 callgsubr
            -22.5 4.5 14.5 145 callsubr
            vhcurveto
            -26.5 -61.5 rlineto
            -17 38.5 -36 callgsubr
            -9 49 hhcurveto
            446 callsubr
            54.5 46 93.5 hvcurveto
            775.5 vlineto
            51 18 -36 callgsubr
            54 28 262 callgsubr
            -5 -15.5 34.5 vhcurveto
            26 60.5 rlineto
            19 -41 -33.5 9 -49 hhcurveto
            endchar
          </CharString>
          <CharString index="118">
            rmoveto
            -61.5 -89.5 -54 -80.5 -149.5 vvcurveto
            -149.5 54 -80.5 61.5 -89.5 vhcurveto
            45.5 30.5 rlineto
            -54 83 -36.5 72.5 133.5 vvcurveto
            133.5 36.5 72.5 54 83 vhcurveto
            endchar
          </CharString>
          <CharString index="119">
            78 -50 callsubr
            110 callgsubr
            -33.5700073242 77 callsubr
            return
          </CharString>
          <CharString index="120">
            -14 -16 callsubr
            449.459991455 67.1799926758 hstem
            53.3500061035 141 callsubr
            return
          </CharString>
          <CharString index="121">
            36.7599945068 -33.8000030518 -45.2400054932 29.5599975586 -64.1199951172 hhcurveto
            -128.869995117 -77.7400054932 -116.220001221 -161 -164.520004272 71.7700042725 -107.839996338 126.449996948 67.4499969482 52.7599945068 33.3500061035 52.6000061035 33.1000061035 hvcurveto
            return
          </CharString>
          <CharString index="122">
            253 67.5 524 callsubr
            hintmask 01100000
            207.5 381 333 callsubr
            -38.5 -52 -40 -45 callgsubr
            hintmask 10100000
            40 36 -61.5 77 hhcurveto
            68.5 37.5 46.5 40.5 220 callsubr
            hintmask 01100000
            -42.5 -36 60.5 423 callsubr
          </CharString>
          <CharString index="123">
            241 callgsubr
            152.410003662 115 hstemhm
            78.5 119 -101.529998779 499 callgsubr
            hintmask 11110000
            137.5 217 callgsubr
            42.4700012207 -247.410003662 rmoveto
            -84 -502.289993286 hlineto
            -8 callgsubr
            endchar
          </CharString>
          <CharString index="124">
            -70 callsubr
            -20 return
          </CharString>
          <CharString index="125">
            37 callsubr
            hstem
            11.2799987793 463.75 vstem
            475.029998779 372 callgsubr
            -87.1300048828 hlineto
            -141.869995117 -464.770004272 -145.130004883 464.770004272 rlineto
            -89.6199951172 hlineto
            178.029998779 186 callgsubr
            28.5500030518 hlineto
            -30.8999938965 -84.3300018311 -28.9700012207 -41.1300048828 -106.619995117 -19.6699981689 9.22999572754 -65.8099975586 rcurveline
            141.61000061 18.0700073242 58.5200042725 77.6100006104 37.3800048828 112.38999939 rrcurveto
            endchar
          </CharString>
          <CharString index="126">
            -70.3600006104 -56.3600006104 -37.1100006104 -54.9600067139 -37.7700042725 hvcurveto
            return
          </CharString>
          <CharString index="127">
            -213 -24 callgsubr
            return
          </CharString>
          <CharString index="128">
            324.710006714 81.3200073242 365 callgsubr
            -7.38999938965 -24.4199981689 hhcurveto
            -47.6699981689 -18.5500030518 26.2899932861 54.8099975586 hvcurveto
            321.61000061 515 callgsubr
            332 callsubr
            65.3200073242 88 callsubr
            349 callgsubr
            91.1000061035 -325.36000061 158 callsubr
            23.2299957275 34.2299957275 vhcurveto
            return
          </CharString>
          <CharString index="129">
            rmoveto
            167.63999939 -295.61000061 rlineto
            103.449996948 hlineto
            -186.770004272 311.240005493 rlineto
            98.6000061035 28.5500030518 51.4199981689 57.1100006104 98.2599945068 vvcurveto
            127.190002441 -87.2899932861 65.7400054932 448 callsubr
            vhcurveto
            -177.520004272 138 callsubr
            443 callsubr
            hlineto
            67.3300018311 vmoveto
            256.960006714 89.3899993896 vlineto
            117.380004883 49.5200042725 -37.4499969482 -87.2899932861 -94.6699981689 -56.9400024414 -37.5500030518 -99.0899963379 hvcurveto
            endchar
          </CharString>
          <CharString index="130">
            112.669998169 368.899993896 rlineto
            endchar
          </CharString>
          <CharString index="131">
            436.63999939 106.320007324 rmoveto
            -24.6399993896 -34.2599945068 -35.6100006104 -23.2299957275 -55.2899932861 hhcurveto
            -93.5800018311 -71.8399963379 65.7100067139 159.330001831 162.350006104 74.8399963379 60.1999969482 90.9700012207 43.4199981689 512 callsubr
            -13.7400054932 -28.2599945068 36.7799987793 hvcurveto
            44 52.3500061035 rlineto
            36.1000061035 -45.9700012207 -44.2299957275 20.7400054932 -74.5800018311 hhcurveto
            -136.710006714 -112.220001221 -101.970001221 -187.779998779 return
          </CharString>
          <CharString index="132">
            148 0 69 251.710006714 114 callsubr
            232.709991455 70 hstem
            112.5 87 302 92 vstem
            112.5 688 rmoveto
            -302.710006714 -91.8600006104 280 callgsubr
            91.8600006104 -320.710006714 161 vlineto
            147 173 66 282 285 -167 55 -172 hvcurveto
            -55 -619 rmoveto
            251.710006714 161.009994507 114 callsubr
            -161.009994507 232.710006714 73 vlineto
            112.5 328 callgsubr
            145 callsubr
            -237.5 -231.5 -111.5 -47.5 -110.5 hvcurveto
            endchar
          </CharString>
          <CharString index="133">
            494 callgsubr
            -34.4900054932 -34 -50.3000030518 -27.1199951172 -71.0899963379 hhcurveto
            -86.0700073242 -48.9299926758 43.1900024414 93.2899932861 hvcurveto
            return
          </CharString>
          <CharString index="134">
            209 callgsubr
            -70.9700164795 211.130004883 111.199996948 211.130004883 -70.1000061035 92.1000061035 return
          </CharString>
          <CharString index="135">
            10.1000061035 109 callgsubr
            return
          </CharString>
          <CharString index="136">
            103.449996948 347 callgsubr
            52.9299926758 -47.8099975586 -82.8399963379 vvcurveto
            -85 -57.2200012207 -51.8000030518 -96.9400024414 -69.2899932861 -52.1600036621 25.8999938965 43.0299987793 -41.1600036621 vhcurveto
            -51.4799957275 -49.4799957275 return
          </CharString>
          <CharString index="137">
            786.5 rmoveto
            -91.5 16.5 -36.5 -196.5 63 -10.5 rlineto
            return
          </CharString>
          <CharString index="138">
            48 callgsubr
            hstem
            330 callsubr
            300.029998779 227 callsubr
            return
          </CharString>
          <CharString index="139">
            -37 116 callsubr
            414.319992065 370 callgsubr
            50.7100067139 54 callgsubr
            return
          </CharString>
          <CharString index="140">
            -5 132.479995728 350.029998779 hstem
            74.9600067139 348.520004272 vstem
            423.479995728 430.289993286 rmoveto
            -51.6100006104 52.2200012207 -122.779998779 -124.160003662 -122.509994507 124.160003662 -51.6199951172 -52.2200012207 122.779998779 -123.289993286 -122.779998779 -123.160003662 51.6199951172 -51.3600006104 122.509994507 123.160003662 122.779998779 -123.160003662 51.6100006104 51.3600006104 -123.029998779 123.160003662 rlineto
            endchar
          </CharString>
          <CharString index="141">
            208.130004883 461 callgsubr
            rlineto
            -90.6100006104 hlineto
            -185.330001831 -234.449996948 rlineto
            -64.6699981689 234.449996948 -84.1300048828 -563.479995728 253 callsubr
            264.449996948 62.8000030518 hlineto
            196.330001831 -264.449996948 rlineto
            return
          </CharString>
          <CharString index="142">
            223 0 68.7100067139 395.959991455 98.8099975586 0 -20 20.870010376 -20 hstemhm
            26.2899932861 672.929992676 hintmask 10011000
            return
          </CharString>
          <CharString index="143">
            90 130 callgsubr
            415.320007324 67.0700073242 333 callgsubr
            return
          </CharString>
          <CharString index="144">
            -17 -189.940002441 -21 231.940002441 77 callsubr
            return
          </CharString>
          <CharString index="145">
            189 -52 callsubr
            83 callgsubr
            return
          </CharString>
          <CharString index="146">
            9.2200012207 128 callsubr
            return
          </CharString>
          <CharString index="147">
            297.350006104 71.4199981689 hstem
            27.1900024414 505.619995117 vstem
            27.1900024414 368.770004272 rmoveto
            -71.4199981689 505.619995117 71.4199981689 vlineto
            endchar
          </CharString>
          <CharString index="148">
            55 0 -64 callsubr
            194.470001221 63.4499969482 175.580001831 142 callgsubr
            hstem
            76 84 252 88.5 vstem
            76 411 callsubr
            rmoveto
            -241.080001831 -59.1999969482 -63.4499969482 59.1999969482 -258.970001221 145 vlineto
            129.5 150 55 231 231.5 -145 46 -149.5 hvcurveto
            -46 -499 rmoveto
            194.470001221 115.160003662 63.4499969482 -115.160003662 175.580001831 61 vlineto
            96 95 -28 -184 -182.5 -91 -39 -94 hvcurveto
            endchar
          </CharString>
          <CharString index="149">
            -7.35000610352 80.3300018311 260 callgsubr
            -526.100006104 84 hlineto
            return
          </CharString>
          <CharString index="150">
            rmoveto
            -86.7400054932 -589.380004883 hlineto
            -92.1300048828 -19.5099945068 -39.2299957275 -91 -37.0299987793 vhcurveto
            22.9299926758 -63.0599975586 rlineto
            111.130004883 36.9299926758 63.1999969482 52.0700073242 138.710006714 vvcurveto
            endchar
          </CharString>
          <CharString index="151">
            393 callgsubr
            74.4199981689 rlineto
            -486.839996338 -74.4199981689 197.550003052 return
          </CharString>
          <CharString index="152">
            rmoveto
            -67.9499969482 -53.4299926758 -34.6000061035 -53.1399993896 -38.6199951172 hvcurveto
            296.740005493 vlineto
            hintmask 01110110
            -84 -9.36000061035 rlineto
            -737.479995728 84 376.029998779 vlineto
            56.9299926758 36.8000030518 42.8099975586 314 callgsubr
            60.2200012207 hhcurveto
            53.1000061035 34.3800048828 250 callsubr
            hintmask 10101110
            -365.130004883 84 376.970001221 vlineto
            hintmask 01101110
            184 callsubr
            -95.6100006104 vhcurveto
            endchar
          </CharString>
          <CharString index="153">
            90 callsubr
            89.3800048828 258.070007324 124 callsubr
            return
          </CharString>
          <CharString index="154">
            51 12.5 35 33 148 callsubr
            vvcurveto
            74 callsubr
            -48 47.5 -86.5 return
          </CharString>
          <CharString index="155">
            116 -16 callsubr
            return
          </CharString>
          <CharString index="156">
            394 0 132 callgsubr
            174.850006104 120 callsubr
            187.229995728 -56 callsubr
            hstem
            498 callgsubr
            84 vstem
            633 132 callgsubr
            rmoveto
            492 -84 -563.5 318.5 vlineto
            10.5 132 callgsubr
            rlineto
            -466.940002441 426.529998779 rmoveto
            9.9700012207 128 callsubr
            -318.449996948 334 callsubr
            246.36000061 193.970001221 120 callsubr
            -193.970001221 187.220001221 hlineto
            endchar
          </CharString>
          <CharString index="157">
            -52 callsubr
            49 callgsubr
            return
          </CharString>
          <CharString index="158">
            rmoveto
            327 callsubr
            -84 -526.100006104 164.869995117 vlineto
            107.509994507 97.1600036621 54 125.36000061 106.220001221 -58.7400054932 68.9700012207 -161.509994507 hvcurveto
            384.899993896 327 callsubr
            rmoveto
            -84 335 callgsubr
            hlineto
            -450.190002441 110 callgsubr
            rmoveto
            223.649993896 64.5500030518 vlineto
            99.9700012207 31.6699981689 -38.6799926758 -71.9299926758 -85.1000061035 -49.6699981689 -27.9299926758 -73 hvcurveto
            endchar
          </CharString>
          <CharString index="159">
            rmoveto
            331 callgsubr
            -29 -35 245 callgsubr
            -29 36.5 return
          </CharString>
          <CharString index="160">
            92.5800018311 return
          </CharString>
          <CharString index="161">
            153.289993286 108.929992676 61.3899993896 160.320007324 143.710006714 -99.9299926758 67.4900054932 -161.419998169 hvcurveto
            439.160003662 255.190002441 rmoveto
            -86.7400054932 138 callsubr
            hlineto
            -521.940002441 -51 callsubr
            rmoveto
            294.779998779 84.0299987793 vlineto
            106.330001831 522 callsubr
            -106.550003052 -119.669998169 -68.0299987793 -30.4900054932 -94.0899963379 hvcurveto
            endchar
          </CharString>
          <CharString index="162">
            -141.5 5 118 callgsubr
            -23 331 callsubr
            -29.5 23 -22.5 30.5 30 23 22.5 29.5 30.5 -23 22.5 -30 hvcurveto
            222 hmoveto
            -30 -23 331 callsubr
            -29.5 23 -22.5 30 30.5 23.5 22.5 29.5 30.5 -23.5 22.5 398 callsubr
            return
          </CharString>
          <CharString index="163">
            359 callsubr
            508 callgsubr
            85 324.839996338 85 vstem
            280 245 callsubr
            -148.199996948 -99.2200012207 -106.380004883 -185.229995728 -185.740005493 99.4799957275 -107.220001221 147.940002441 148.580001831 98.8399963379 108.130004883 184.839996338 186 -98.9700012207 105.61000061 -148.449996948 hvcurveto
            238 callgsubr
            204 callgsubr
            rmoveto
            return
          </CharString>
          <CharString index="164">
            68.9299926758 return
          </CharString>
          <CharString index="165">
            248 129 hstem
            51.5 128.5 vstem
            115.5 377 52 callsubr
            37 260 callsubr
            36 227 callgsubr
            29 -37 hvcurveto
            endchar
          </CharString>
          <CharString index="166">
            100 82 callsubr
            90 callgsubr
            506.899993896 -20 return
          </CharString>
          <CharString index="167">
            234 69 callgsubr
            246.350006104 120 callsubr
            187.229995728 65.4499969482 hstemhm
            498 callgsubr
            85 hintmask 01111100
            634 hmoveto
            411 callsubr
            -85 -563.5 vlineto
            -137.940002441 498.029998779 rmoveto
            9.9700012207 128 callsubr
            -318.449996948 hlineto
            hintmask 10111100
            334 callsubr
            246.36000061 193.970001221 120 callsubr
            -193.970001221 187.220001221 vlineto
            endchar
          </CharString>
          <CharString index="168">
            -54 0 -34 callsubr
            429.099990845 290 callgsubr
            282 callsubr
            366.61000061 vstem
            407.899993896 496.289993286 rmoveto
            -34 callsubr
            -366.61000061 -65.6399993896 vlineto
            410 callsubr
            -219.839996338 -190.190002441 -213.36000061 rlineto
            -64.6399993896 366.61000061 -34 callsubr
            -271.089996338 vlineto
            171.089996338 189.130004883 rlineto
            46.8399963379 vlineto
            -171.089996338 193.130004883 rlineto
            endchar
          </CharString>
          <CharString index="169">
            389 callgsubr
            31.3499908447 -21 221.850006104 208 callsubr
            258 callgsubr
            hintmask 01111100
            return
          </CharString>
          <CharString index="170">
            -98 rlineto
            hintmask 10111110
            63.5 -0.5 25.5 -14.5 -28 vvcurveto
            -29.5 -24.5 105 callsubr
            -30 -24.5 -16.5 6 10 -18 vhcurveto
            hintmask 01111100
            136 callgsubr
            hintmask 10111110
            -14.5 19.5 30 -9 35.5 hhcurveto
            67 56 33.5 63.5 hvcurveto
            hintmask 01111100
            41 -28 36.5 -67.5 5.5 vhcurveto
            endchar
          </CharString>
          <CharString index="171">
            14 callgsubr
            265.550003052 90.2200012207 vstem
            return
          </CharString>
          <CharString index="172">
            319 0 76.4199981689 510.25 101.419998169 0 -20 hstemhm
            26.2799987793 769.550003052 hintmask 10110000
            return
          </CharString>
          <CharString index="173">
            hstemhm
            -71 callsubr
            return
          </CharString>
          <CharString index="174">
            -37.0299987793 50.7400054932 return
          </CharString>
          <CharString index="175">
            526.089996338 -84 216 callgsubr
            return
          </CharString>
          <CharString index="176">
            67.1799926758 hstem
            42.5800018311 85 348.779998779 85 vstem
            301.970001221 245 callsubr
            -149.940002441 -109.449996948 -106.380004883 -185.229995728 -185.740005493 109.710006714 -107.220001221 149.679992676 150.320007324 109.070007324 108.130004883 184.839996338 186 -109.199996948 105.61000061 -150.190002441 hvcurveto
            238 callgsubr
            204 callgsubr
            rmoveto
            return
          </CharString>
          <CharString index="177">
            611.929992676 -23 callgsubr
            360.160003662 vlineto
            10.3600006104 174 callgsubr
            rlineto
            return
          </CharString>
          <CharString index="178">
            rmoveto
            125.710006714 -80.7400054932 35.8999938965 41.5200042725 -133.580001831 107.929992676 rlineto
            -55.1900024414 hlineto
            -134.580001831 -107.929992676 36.7700042725 -41.5200042725 rlineto
            endchar
          </CharString>
          <CharString index="179">
            -6.88999938965 -107 rlineto
            -112.61000061 hlineto
            114.5 247 -60.5 23 return
          </CharString>
          <CharString index="180">
            3 callsubr
            vhcurveto
            endchar
          </CharString>
          <CharString index="181">
            57.5 return
          </CharString>
          <CharString index="182">
            44 callsubr
            441 callsubr
            return
          </CharString>
          <CharString index="183">
            164 callgsubr
            41.5 -26 rlineto
            return
          </CharString>
          <CharString index="184">
            -21 -27 callsubr
            -20 return
          </CharString>
          <CharString index="185">
            46 69 callgsubr
            237.350006104 62.8399963379 199.580001831 118 callsubr
            485 callgsubr
            84 return
          </CharString>
          <CharString index="186">
            -42 callsubr
            11 callgsubr
            11 callgsubr
            11 callgsubr
            return
          </CharString>
          <CharString index="187">
            189 230 callgsubr
            -43.2399902344 -21 632.470001221 83 callgsubr
            -7.13999938965 -20 228 callgsubr
            124 callgsubr
            392.38999939 124 callgsubr
            hintmask 10101100
            return
          </CharString>
          <CharString index="188">
            -19 callgsubr
            54 callgsubr
            vstem
            return
          </CharString>
          <CharString index="189">
            -10.6199951172 return
          </CharString>
          <CharString index="190">
            -526.089996338 return
          </CharString>
          <CharString index="191">
            41 -25.5 36.5 -67 5.5 vhcurveto
            return
          </CharString>
          <CharString index="192">
            -20 96 callsubr
            return
          </CharString>
          <CharString index="193">
            878.5 288 callsubr
            43.5 -104 -162.5 41.5 -26 rlineto
            return
          </CharString>
          <CharString index="194">
            -36 0 109 callsubr
            423.75 68.9299926758 439 callsubr
            390.259994507 vstem
            return
          </CharString>
          <CharString index="195">
            rlineto
            -127.320007324 130.38999939 hlineto
            -84 -9.9700012207 rlineto
            -120.419998169 -91.1000061035 return
          </CharString>
          <CharString index="196">
            -19 callgsubr
            84 return
          </CharString>
          <CharString index="197">
            58.6799926758 return
          </CharString>
          <CharString index="198">
            -37 116 callsubr
            185.25 66.1999969482 163.739990234 369 callsubr
            58.6900024414 91.9600067139 -70.9700164795 -75 callsubr
            hintmask 11110000
            return
          </CharString>
          <CharString index="199">
            -242.679992676 -475.869995117 rlineto
            5.49000549316 52.1600036621 6.35000610352 62.3300018311 99.5500030518 vvcurveto
            return
          </CharString>
          <CharString index="200">
            -63 callsubr
            rlineto
            return
          </CharString>
          <CharString index="201">
            70.5 return
          </CharString>
          <CharString index="202">
            274 518 callgsubr
            306 callsubr
            20.0099945068 177 callgsubr
            hintmask 10111100
            return
          </CharString>
          <CharString index="203">
            hstemhm
            40 callgsubr
            return
          </CharString>
          <CharString index="204">
            rmoveto
            55.5 hlineto
            133.5 111 160 callgsubr
            return
          </CharString>
          <CharString index="205">
            8.5 -16 16 -12 hvcurveto
            -39.5 -146 rlineto
            55 hlineto
            -64 callsubr
            137.5 rlineto
            12.5 27 return
          </CharString>
          <CharString index="206">
            rmoveto
            125.5 84.5 125 -84.5 37 41.5 -134.5 111.5 rlineto
            -55.5 hlineto
            -133.5 -111.5 rlineto
            return
          </CharString>
          <CharString index="207">
            38.5 24 33.5 98.5 43 return
          </CharString>
          <CharString index="208">
            69 callgsubr
            -70 callsubr
            -20 hstemhm
            return
          </CharString>
          <CharString index="209">
            628.509994507 68.7100067139 0 -20 hstemhm
            38.9900054932 323.36000061 hintmask 01100000
            362.350006104 736.449996948 rmoveto
            -35.8999938965 41.5099945068 -125.710006714 -80.7400054932 -124.970001221 80.7400054932 -36.7799987793 -41.5099945068 rlineto
            hintmask 10100000
            134.580001831 -107.940002441 rlineto
            55.1999969482 hlineto
            endchar
          </CharString>
          <CharString index="210">
            -55 callsubr
            rlineto
            return
          </CharString>
          <CharString index="211">
            178 0 94.2200012207 -73.2100067139 -21 591.260009766 96.8300018311 0 -20 return
          </CharString>
          <CharString index="212">
            -11.5 return
          </CharString>
          <CharString index="213">
            6 21 -21 448.869995117 159 callgsubr
            hstem
            214.220001221 80.6499938965 vstem
            294.869995117 519.550003052 rmoveto
            148.550003052 -80.6499938965 -148.550003052 -170.160003662 -70.6799926758 170.160003662 -448.869995117 80.6499938965 448.869995117 170.160003662 159 callgsubr
            vlineto
            endchar
          </CharString>
          <CharString index="214">
            367 callsubr
            73.5399932861 566.36000061 404 callgsubr
            return
          </CharString>
          <CharString index="215">
            hstem
            8.46000671387 486.410003662 vstem
            return
          </CharString>
          <CharString index="216">
            70.8000030518 return
          </CharString>
          <CharString index="217">
            132.5 350 hstem
            314 callsubr
            349 vstem
            454.5 430.5 rmoveto
            -52 52 -122.5 -124 -122.5 124 -52 -52 123 -123.5 -123 -123 52 -51.5 122.5 123 122.5 -123 52 51.5 -123.5 123 rlineto
            endchar
          </CharString>
          <CharString index="218">
            48.8999938965 39.2200012207 46.1499938965 28.4199981689 70.0500030518 hhcurveto
            93.4499969482 40.6499938965 -49.9299926758 -89.2599945068 hvcurveto
            return
          </CharString>
          <CharString index="219">
            128.5 hstem
            51.5 128.5 vstem
            115.5 490 419 callsubr
            -35 -36.5 421 callgsubr
            -36 callgsubr
            262 callgsubr
            36.5 227 callgsubr
            262 callgsubr
            -37 hvcurveto
            return
          </CharString>
          <CharString index="220">
            -5 295.970001221 289 callgsubr
            209.839996338 77.1600036621 vstem
            287 365.899993896 rmoveto
            150.520004272 -77.1600036621 -150.520004272 -146.160003662 -69.9299926758 146.160003662 -149.649993896 77.1600036621 149.649993896 146.899993896 -51 callsubr
            vlineto
            endchar
          </CharString>
          <CharString index="221">
            64.5800018311 return
          </CharString>
          <CharString index="222">
            59 callsubr
            hstem
            364 callgsubr
            vstem
            return
          </CharString>
          <CharString index="223">
            -50 callsubr
            90 callgsubr
            return
          </CharString>
          <CharString index="224">
            -20 20.0100097656 -20 return
          </CharString>
          <CharString index="225">
            63.7100067139 return
          </CharString>
          <CharString index="226">
            103.020004272 23.2299957275 38.6600036621 48.3800048828 67.3300018311 hhcurveto
            18.7400054932 11.6399993896 -2 -4 15.6199951172 hvcurveto
            return
          </CharString>
          <CharString index="227">
            64.4499969482 return
          </CharString>
          <CharString index="228">
            -82 callsubr
            39.5 -10 callsubr
            55 25.5 hvcurveto
            return
          </CharString>
          <CharString index="229">
            32 callsubr
            201.199996948 161 callgsubr
            return
          </CharString>
          <CharString index="230">
            89 callsubr
            vstem
            return
          </CharString>
          <CharString index="231">
            83.1300048828 return
          </CharString>
          <CharString index="232">
            271 callgsubr
            hstem
            57.5800018311 88.4900054932 return
          </CharString>
          <CharString index="233">
            rmoveto
            51 -262 -56.5 188.5 vlineto
            -155.5 -345 142 callgsubr
            -22 rlineto
            return
          </CharString>
          <CharString index="234">
            -27 -50 callsubr
            139 callgsubr
            408.229995728 return
          </CharString>
          <CharString index="235">
            -56 callsubr
            rlineto
            return
          </CharString>
          <CharString index="236">
            170 21 -21 613.800003052 74.2899932861 -40 callsubr
            294.029998779 -75 callsubr
            vstem
            570.089996338 371 callgsubr
            -467.509994507 138 callsubr
            613.800003052 294.029998779 -613.800003052 vlineto
            endchar
          </CharString>
          <CharString index="237">
            -11.8399963379 hvcurveto
            -40 -161.619995117 rlineto
            60.4499969482 hlineto
            64.4199981689 148.36000061 rlineto
            11.9700012207 26.9299926758 5.25999450684 19.3600006104 20.8399963379 vvcurveto
            35.2899932861 -27.5500030518 28.6699981689 -37.2899932861 vhcurveto
            endchar
          </CharString>
          <CharString index="238">
            65.3200073242 return
          </CharString>
          <CharString index="239">
            120 459 callsubr
            hstem
            408.5 68 vstem
            476.5 375.5 rmoveto
            -362.5 170 -76 callgsubr
            -69.5 325 -143 -325 -145.5 30.5 -67.5 362.5 170.5 rlineto
            endchar
          </CharString>
          <CharString index="240">
            0 71 245 70 150.5 -20 hstem
            241.5 77 vstem
            318.5 386 rmoveto
            150.5 -77 -150.5 -146.5 -70 146.5 -149.5 77 149.5 147 70 vlineto
            -371 -315 424 callgsubr
          </CharString>
          <CharString index="241">
            -107.61000061 -73.5500030518 211.130004883 73.4199981689 hlineto
            return
          </CharString>
          <CharString index="242">
            194 callsubr
            554.160003662 return
          </CharString>
          <CharString index="243">
            0 -56 callsubr
            return
          </CharString>
          <CharString index="244">
            -92.9700012207 91.8399963379 -147.929992676 vhcurveto
            -0.869995117188 -518.259994507 rmoveto
            -88.8699951172 -59.0700073242 56.8399963379 141.289993286 -2.74000549316 hvcurveto
            305.729995728 hlineto
            -142.289993286 -7.66000366211 -58.4299926758 return
          </CharString>
          <CharString index="245">
            -63 callsubr
            -75 callsubr
            return
          </CharString>
          <CharString index="246">
            82 395 callsubr
            hstemhm
            97.5800018311 84 return
          </CharString>
          <CharString index="247">
            307 callsubr
            hstem
            63.5 238 callsubr
            vstem
            63.5 495 callsubr
            238 callsubr
            94 callsubr
            vlineto
            515 callsubr
            -188.5 226 callgsubr
          </CharString>
          <CharString index="248">
            85.8699951172 return
          </CharString>
          <CharString index="249">
            108.5 return
          </CharString>
          <CharString index="250">
            5 21 -21 343 callgsubr
            349 callsubr
            39 callgsubr
            485.160003662 343 callgsubr
            rmoveto
            12.8399963379 349 callsubr
            rlineto
            -395.419998169 138 callsubr
            343 callgsubr
            hlineto
            endchar
          </CharString>
          <CharString index="251">
            hstem
            75.5 249 vstem
            75.5 return
          </CharString>
          <CharString index="252">
            -32.5 return
          </CharString>
          <CharString index="253">
            -55 callsubr
            -81.3899993896 -385.550003052 vlineto
            return
          </CharString>
          <CharString index="254">
            56.5 return
          </CharString>
          <CharString index="255">
            52.5 return
          </CharString>
          <CharString index="256">
            -62 94 callgsubr
            492.809997559 159 callgsubr
            123 callsubr
            419.419998169 508 callsubr
            rmoveto
            11.9600067139 159 callgsubr
            rlineto
            -328.800003052 334 callsubr
            492.809997559 hlineto
            endchar
          </CharString>
          <CharString index="257">
            82.2599945068 return
          </CharString>
          <CharString index="258">
            vvcurveto
            -49.0299987793 -41.2599945068 -25.9100036621 -57.3899993896 -23.6399993896 vhcurveto
            35.6499938965 -58.5800018311 rlineto
            104.63999939 45.8399963379 48.7100067139 47.0899963379 73.0700073242 vvcurveto
            return
          </CharString>
          <CharString index="259">
            rmoveto
            -197.899993896 104.419998169 345 callsubr
            -71.1999969482 211.869995117 -78.6100006104 rlineto
            endchar
          </CharString>
          <CharString index="260">
            127 callsubr
            69.8000030518 hstem
            229 callsubr
            vstem
            return
          </CharString>
          <CharString index="261">
            5.28999328613 53 callgsubr
            8.34001159668 return
          </CharString>
          <CharString index="262">
            21.0099945068 -21 return
          </CharString>
          <CharString index="263">
            -3 286.710006714 262 callsubr
            hstem
            359.649993896 76.4100036621 vstem
            436.059997559 147.449996948 rmoveto
            210.190002441 -372.380004883 -70.9299926758 295.970001221 -139.259994507 vlineto
            endchar
          </CharString>
          <CharString index="264">
            -15.1300048828 34 hvcurveto
            26.8099975586 61.4499969482 rlineto
            18 -41.1000061035 -35.0299987793 9.25999450684 -48.8399963379 hhcurveto
            -103.130004883 -57.2200012207 -60.4199981689 -86.7100067139 hvcurveto
            return
          </CharString>
          <CharString index="265">
            vlineto
            -96.4499969482 51.9700012207 -50.7100067139 86.6699981689 44.4900054932 37.4799957275 12 return
          </CharString>
          <CharString index="266">
            425 -8.5 223 callsubr
            return
          </CharString>
          <CharString index="267">
            -63 callsubr
            vlineto
            return
          </CharString>
          <CharString index="268">
            hstemhm
            -79 callgsubr
            return
          </CharString>
          <CharString index="269">
            -69 0 70.6699981689 383.880004883 139 callgsubr
            return
          </CharString>
          <CharString index="270">
            215 callsubr
            66.1999969482 return
          </CharString>
          <CharString index="271">
            hlineto
            -20 callgsubr
            return
          </CharString>
          <CharString index="272">
            699.839996338 return
          </CharString>
          <CharString index="273">
            rmoveto
            89.5 -65.5 -89.5 -92 -60 92 -88 142 callgsubr
            88 92 60 vlineto
            endchar
          </CharString>
          <CharString index="274">
            333 callsubr
            371 94 callsubr
            vlineto
            return
          </CharString>
          <CharString index="275">
            116 -10.6100006104 -18 callgsubr
            -40.6600036621 -21 510.980010986 -34 callsubr
            -5.0299987793 -20 hstemhm
            57.5700073242 165 callgsubr
            327.009994507 88.4700012207 hintmask 10101100
            return
          </CharString>
          <CharString index="276">
            vlineto
            -79.2899932861 -15.4199981689 -24.7400054932 -66.8399963379 return
          </CharString>
          <CharString index="277">
            78 50 callsubr
            -41.8499908447 -21 476.309997559 49 callgsubr
            -5.23999023438 308 callsubr
            90.2299957275 283.230010986 90.2200012207 hintmask 10101100
            return
          </CharString>
          <CharString index="278">
            74 callsubr
            308 74 callsubr
            hstem
            257.5 73.5 vstem
            195.5 return
          </CharString>
          <CharString index="279">
            39 callsubr
            -325.059997559 return
          </CharString>
          <CharString index="280">
            203 callsubr
            26.0899963379 -90.5500030518 hhcurveto
            return
          </CharString>
          <CharString index="281">
            -66.5 return
          </CharString>
          <CharString index="282">
            -76.5 9 -16 -181 48.5 -7.5 rlineto
            return
          </CharString>
          <CharString index="283">
            -230 9.91000366211 -21 537.190002441 -20 138.679992676 105.740005493 hstemhm
            -21.8399963379 346 callgsubr
            7.67999267578 84 6.67999267578 346 callgsubr
            hintmask 11101000
            return
          </CharString>
          <CharString index="284">
            55.8999938965 66 callgsubr
            return
          </CharString>
          <CharString index="285">
            -8.11000061035 109.619995117 260 callgsubr
            335 callgsubr
            304.570007324 hlineto
            return
          </CharString>
          <CharString index="286">
            69.8099975586 return
          </CharString>
          <CharString index="287">
            -101 277.220001221 368 callsubr
            61.9299926758 278.619995117 vstem
            61.9299926758 481 callgsubr
            -71.5500030518 278.619995117 139 callgsubr
            vlineto
            endchar
          </CharString>
          <CharString index="288">
            -5 296.839996338 109 callsubr
            hstem
            63.6699981689 371.100006104 vstem
            63.6699981689 367.63999939 rmoveto
            -70.8000030518 371.100006104 109 callsubr
            vlineto
            endchar
          </CharString>
          <CharString index="289">
            312.61000061 187 callgsubr
            return
          </CharString>
          <CharString index="290">
            188 callsubr
            385 callsubr
            256.289993286 92.1000061035 vstem
            return
          </CharString>
          <CharString index="291">
            99.1300048828 -55.7100067139 61.7400054932 return
          </CharString>
          <CharString index="292">
            -18 136 callsubr
            return
          </CharString>
          <CharString index="293">
            -55 callsubr
            rmoveto
            return
          </CharString>
          <CharString index="294">
            46.5 return
          </CharString>
          <CharString index="295">
            68.1900024414 return
          </CharString>
          <CharString index="296">
            293 callsubr
            -458.029998779 -178.029998779 458.029998779 -80.3899993896 -458.029998779 -177.899993896 458.029998779 293 callsubr
            83 callsubr
            return
          </CharString>
          <CharString index="297">
            345.869995117 244 callgsubr
            -170.330001831 407 callsubr
            return
          </CharString>
          <CharString index="298">
            3.86999511719 -15.3600006104 -18.7400054932 2.13000488281 -17.8999938965 hhcurveto
            return
          </CharString>
          <CharString index="299">
            -57.5 return
          </CharString>
          <CharString index="300">
            57 callsubr
            hstem
            return
          </CharString>
          <CharString index="301">
            hstemhm
            8.44999694824 return
          </CharString>
          <CharString index="302">
            -145.61000061 -221.970001221 -188.130004883 60.7100067139 -134.38999939 return
          </CharString>
          <CharString index="303">
            -79.1600036621 -54.3500061035 -27.3099975586 -44.1600036621 -41.1999969482 return
          </CharString>
          <CharString index="304">
            68.9400024414 return
          </CharString>
          <CharString index="305">
            696 rmoveto
            -92 callgsubr
            return
          </CharString>
          <CharString index="306">
            -74.1999969482 36.9700012207 -38.1900024414 64.5500030518 25.8399963379 24.9700012207 5.86999511719 11.2200012207 23.4499969482 vhcurveto
            return
          </CharString>
          <CharString index="307">
            20 callsubr
            139.020004272 476 callsubr
            -11 107 6.58000183105 53 callgsubr
            7.05000305176 106.5 hintmask 11101000
            return
          </CharString>
          <CharString index="308">
            246 callgsubr
            31.3600006104 -21 189.089996338 return
          </CharString>
          <CharString index="309">
            -20 callgsubr
            hlineto
            return
          </CharString>
          <CharString index="310">
            -55.8399963379 return
          </CharString>
          <CharString index="311">
            -21 -24 callgsubr
            139.020004272 476 callsubr
            86 107 154 callsubr
            106.5 hintmask 11101000
            return
          </CharString>
          <CharString index="312">
            268.419998169 239 callgsubr
            rmoveto
            164.190002441 hlineto
            20 callgsubr
            return
          </CharString>
          <CharString index="313">
            148 callsubr
            -37 148 callsubr
            -15.5 -20 128.5 54 return
          </CharString>
          <CharString index="314">
            84 -10.3500061035 rlineto
            588.160003662 vlineto
            return
          </CharString>
          <CharString index="315">
            215 callsubr
            66.1900024414 return
          </CharString>
          <CharString index="316">
            hstemhm
            102.589996338 237 callgsubr
            return
          </CharString>
          <CharString index="317">
            32.5 return
          </CharString>
          <CharString index="318">
            -0.130004882812 return
          </CharString>
          <CharString index="319">
            -85 -616.419998169 -232.61000061 346 callsubr
            -81.3899993896 -616.419998169 -232.61000061 346 callsubr
            -85 -63 callsubr
            return
          </CharString>
          <CharString index="320">
            -220 17 callsubr
            hstem
            101.449996948 84 vstem
            return
          </CharString>
          <CharString index="321">
            hlineto
            73.1600036621 38.5099945068 40.9700012207 return
          </CharString>
          <CharString index="322">
            -21 471.63999939 return
          </CharString>
          <CharString index="323">
            537.839996338 rmoveto
            return
          </CharString>
          <CharString index="324">
            79.3500061035 17.7400054932 55 50.7400054932 87.3800048828 vvcurveto
            98.2599945068 -69 76.5800018311 -136.419998169 vhcurveto
            endchar
          </CharString>
          <CharString index="325">
            229.380004883 hlineto
            10.9700012207 69.8000030518 rlineto
            -324.350006104 return
          </CharString>
          <CharString index="326">
            201.070007324 return
          </CharString>
          <CharString index="327">
            145 callgsubr
            hvcurveto
            -55.5 29.5 rlineto
            78 callgsubr
            -16.5 -17.5 -21.5 -33 hhcurveto
            return
          </CharString>
          <CharString index="328">
            56.4499969482 18.9299926758 147 callgsubr
            return
          </CharString>
          <CharString index="329">
            -65.8699951172 -55.8699951172 65.8699951172 return
          </CharString>
          <CharString index="330">
            147 callsubr
            168.5 148 callsubr
            return
          </CharString>
          <CharString index="331">
            -20 66 callsubr
            return
          </CharString>
          <CharString index="332">
            -54.5 -56.5 -18 -54 return
          </CharString>
          <CharString index="333">
            265.5 hintmask 00000000
            return
          </CharString>
          <CharString index="334">
            87.6199951172 vstem
            return
          </CharString>
          <CharString index="335">
            227.220001221 return
          </CharString>
          <CharString index="336">
            90 callsubr
            90.3600006104 return
          </CharString>
          <CharString index="337">
            hstemhm
            261 71 -61 237 callsubr
            return
          </CharString>
          <CharString index="338">
            21 279 callgsubr
            return
          </CharString>
          <CharString index="339">
            690.550003052 rmoveto
            -58.9700012207 38.6399993896 -463.130004883 -719.869995117 58.9700012207 -38.6399993896 rlineto
            return
          </CharString>
          <CharString index="340">
            hlineto
            183.190002441 436.800003052 -70.4199981689 29.2899932861 -201.380004883 -472.580001831 rlineto
            -58.9700012207 return
          </CharString>
          <CharString index="341">
            76 322 callsubr
            86.7400054932 return
          </CharString>
          <CharString index="342">
            -201 203 callgsubr
            hstem
            117.449996948 261 callgsubr
            vstem
            return
          </CharString>
          <CharString index="343">
            -72.1600036621 return
          </CharString>
          <CharString index="344">
            74.5 return
          </CharString>
          <CharString index="345">
            371.5 return
          </CharString>
          <CharString index="346">
            5 -8 -13 3 -17 hhcurveto
            -51 -112 -46 -11 -28 hvcurveto
            -2 -5 77 -13 rlineto
            0 11 -41 32 -19 vhcurveto
            12 hlineto
            -15 17 -5 16 12 vvcurveto
            39 39 8 20 return
          </CharString>
          <CharString index="347">
            rmoveto
            -91 callsubr
            endchar
          </CharString>
          <CharString index="348">
            -148.5 -170 -70.5 170 return
          </CharString>
          <CharString index="349">
            vlineto
            9.2200012207 return
          </CharString>
          <CharString index="350">
            -64 callsubr
            hstemhm
            return
          </CharString>
          <CharString index="351">
            748.449996948 rmoveto
            return
          </CharString>
          <CharString index="352">
            573.089996338 rmoveto
            return
          </CharString>
          <CharString index="353">
            -87.8699951172 hlineto
            return
          </CharString>
          <CharString index="354">
            84.4499969482 -97.1300048828 131.580001831 135.679992676 87.2200012207 103.289993286 172.449996948 return
          </CharString>
          <CharString index="355">
            52.9900054932 168 53.5 hstem
            53 132 callgsubr
            149.320007324 73.1799926758 vstem
            261 callsubr
            return
          </CharString>
          <CharString index="356">
            309 callgsubr
            54 -20 230 callsubr
            return
          </CharString>
          <CharString index="357">
            -25.9700012207 -80.5500030518 hvcurveto
            return
          </CharString>
          <CharString index="358">
            -15.8699951172 -26 -21.9100036621 return
          </CharString>
          <CharString index="359">
            vvcurveto
            223.160003662 -113.36000061 return
          </CharString>
          <CharString index="360">
            84.1300048828 return
          </CharString>
          <CharString index="361">
            rmoveto
            281 callgsubr
            43.3800048828 -103.619995117 -170.580001831 41.5200042725 -25.9299926758 rlineto
            endchar
          </CharString>
          <CharString index="362">
            405 callsubr
            40.5 145 callgsubr
            hvcurveto
            -55.5 return
          </CharString>
          <CharString index="363">
            32 9.25999450684 -21 699.840011597 -20 return
          </CharString>
          <CharString index="364">
            hstem
            30 233.929992676 vstem
            263.929992676 return
          </CharString>
          <CharString index="365">
            rmoveto
            64 -265.5 -64 vlineto
            return
          </CharString>
          <CharString index="366">
            -70 callsubr
            rmoveto
            return
          </CharString>
          <CharString index="367">
            -36 callgsubr
            29 return
          </CharString>
          <CharString index="368">
            199.5 return
          </CharString>
          <CharString index="369">
            70.9299926758 return
          </CharString>
          <CharString index="370">
            -64.4499969482 return
          </CharString>
          <CharString index="371">
            79.5 return
          </CharString>
          <CharString index="372">
            146 -50 callsubr
            324 callgsubr
            255.029998779 179 callsubr
            408 callgsubr
            return
          </CharString>
          <CharString index="373">
            153.130004883 vlineto
            132.800003052 95.1999969482 52 131.710006714 118.970001221 -87.1999969482 return
          </CharString>
          <CharString index="374">
            -172.289993286 -215.970001221 rlineto
            -57.4499969482 vlineto
            172.289993286 -214.970001221 50.4799957275 return
          </CharString>
          <CharString index="375">
            hvcurveto
            hintmask 11010100
            134 callsubr
            hintmask 11100100
            -89.4900054932 return
          </CharString>
          <CharString index="376">
            105 callsubr
            57 -36 -21 276.5 58.5 20 57 220.5 74 callsubr
            hstemhm
            return
          </CharString>
          <CharString index="377">
            -116.490005493 197 callsubr
            301.940002441 65.4400024414 177.330001831 110 callgsubr
            hstem
            return
          </CharString>
          <CharString index="378">
            79 256 callgsubr
            39 callgsubr
            return
          </CharString>
          <CharString index="379">
            243 callgsubr
            73.5599975586 257.419998169 83 callgsubr
            237.260009766 83 callgsubr
            return
          </CharString>
          <CharString index="380">
            130 callgsubr
            577.190002441 370 callgsubr
            504 callgsubr
            54 callgsubr
            return
          </CharString>
          <CharString index="381">
            18 -52 callsubr
            73.4199981689 267.190002441 374 callsubr
            227.750015259 83 callgsubr
            return
          </CharString>
          <CharString index="382">
            74 callsubr
            261 callsubr
            58.5 hstem
            78 132 callgsubr
            179.5 71 vstem
            239 return
          </CharString>
          <CharString index="383">
            132.380004883 246.220001221 rlineto
            -86.6100006104 hlineto
            return
          </CharString>
          <CharString index="384">
            hvcurveto
            44.1300048828 -50.4900054932 rlineto
            42.6499938965 return
          </CharString>
          <CharString index="385">
            -56.2899932861 -25.4499969482 return
          </CharString>
          <CharString index="386">
            75.4199981689 return
          </CharString>
          <CharString index="387">
            68.1999969482 return
          </CharString>
          <CharString index="388">
            86.5 return
          </CharString>
          <CharString index="389">
            41.2899932861 return
          </CharString>
          <CharString index="390">
            97.5800018311 150 callsubr
            177.900009155 80.3899993896 178.029998779 150 callsubr
            return
          </CharString>
          <CharString index="391">
            94.8699951172 -28.2599945068 -183.899993896 -182.259994507 -90.7400054932 -39.0299987793 return
          </CharString>
          <CharString index="392">
            94.2899932861 91.9700012207 146.130004883 142.740005493 -87.4499969482 69.3600006104 return
          </CharString>
          <CharString index="393">
            hvcurveto
            73.9299926758 vlineto
            -21.6399993896 return
          </CharString>
          <CharString index="394">
            -64 callsubr
            hstem
            return
          </CharString>
          <CharString index="395">
            rmoveto
            174 callsubr
            return
          </CharString>
          <CharString index="396">
            148 callgsubr
            -20 return
          </CharString>
          <CharString index="397">
            -34 callsubr
            200.520004272 -20 30.0899963379 85 callsubr
            255.419998169 return
          </CharString>
          <CharString index="398">
            rmoveto
            -30.4499969482 -24.1900024414 -22.7100067139 return
          </CharString>
          <CharString index="399">
            -13 -15 vvcurveto
            145 callsubr
            26.5 -26 34 vhcurveto
            return
          </CharString>
          <CharString index="400">
            -82.2599945068 return
          </CharString>
          <CharString index="401">
            81.5 return
          </CharString>
          <CharString index="402">
            15.5 -14 11 hvcurveto
            29.5 115.5 rlineto
            -49 hlineto
            -40.5 -86 rlineto
            return
          </CharString>
          <CharString index="403">
            13.5800018311 -259.550003052 rlineto
            63.1900024414 hlineto
            13.5800018311 259.550003052 rlineto
            return
          </CharString>
          <CharString index="404">
            hstem
            82 callgsubr
            vstem
            return
          </CharString>
          <CharString index="405">
            -20 105 callgsubr
            return
          </CharString>
          <CharString index="406">
            11 21 -21 245.710006714 66.0599975586 214.330001831 -20 397 callsubr
            return
          </CharString>
          <CharString index="407">
            -21.8699951172 -2 -12.6100006104 -34.4499969482 hvcurveto
            14.9700012207 -66.0700073242 return
          </CharString>
          <CharString index="408">
            -56.5800018311 -12.1300048828 -23.6199951172 return
          </CharString>
          <CharString index="409">
            112.160003662 -62.7100067139 66.7100067139 return
          </CharString>
          <CharString index="410">
            407 callsubr
            197 callgsubr
            return
          </CharString>
          <CharString index="411">
            60 hstem
            167.5 142 callgsubr
            vstem
            233 return
          </CharString>
          <CharString index="412">
            hstem
            24 callgsubr
            return
          </CharString>
          <CharString index="413">
            49 callgsubr
            469.770004272 -20 return
          </CharString>
          <CharString index="414">
            -5 231 callgsubr
            return
          </CharString>
          <CharString index="415">
            -20 311 callgsubr
            return
          </CharString>
          <CharString index="416">
            593.869995117 rlineto
            return
          </CharString>
          <CharString index="417">
            203 callsubr
            rlineto
            return
          </CharString>
          <CharString index="418">
            -188.940002441 -21 return
          </CharString>
          <CharString index="419">
            56.8699951172 return
          </CharString>
          <CharString index="420">
            102.570007324 return
          </CharString>
          <CharString index="421">
            105.5 return
          </CharString>
          <CharString index="422">
            85.5 return
          </CharString>
          <CharString index="423">
            176 callgsubr
            -27.9799957275 hvcurveto
            return
          </CharString>
          <CharString index="424">
            -101 322 72 hstem
            62 278.5 vstem
            62 394 rmoveto
            -72 278.5 72 vlineto
            endchar
          </CharString>
          <CharString index="425">
            85.8800048828 197.379989624 76.7700042725 197.38999939 85.8800048828 return
          </CharString>
          <CharString index="426">
            -78.8399963379 -57.7100067139 -22.7400054932 -47.8699951172 -57.8699951172 return
          </CharString>
          <CharString index="427">
            -30.5500030518 -79.0700073242 -89.1900024414 278 callsubr
            return
          </CharString>
          <CharString index="428">
            -162 531.380004883 -20 hstem
            58.8699951172 222.770004272 vstem
            281.63999939 return
          </CharString>
          <CharString index="429">
            231 callsubr
            -19 callgsubr
            return
          </CharString>
          <CharString index="430">
            -24 callgsubr
            142.520004272 106 return
          </CharString>
          <CharString index="431">
            54.9700012207 return
          </CharString>
          <CharString index="432">
            55.8699951172 return
          </CharString>
          <CharString index="433">
            -64.4799957275 return
          </CharString>
          <CharString index="434">
            171.550003052 return
          </CharString>
          <CharString index="435">
            -20 30.0999908447 -20 hstemhm
            63.6799926758 90.2200012207 259.550003052 84 return
          </CharString>
          <CharString index="436">
            226 0 66.3399963379 223.63999939 64.5700073242 327 callsubr
            -20 return
          </CharString>
          <CharString index="437">
            53 callsubr
            -75 callsubr
            return
          </CharString>
          <CharString index="438">
            -22.5 -76 callgsubr
            return
          </CharString>
          <CharString index="439">
            vlineto
            315 callgsubr
            return
          </CharString>
          <CharString index="440">
            rmoveto
            -70.5 return
          </CharString>
          <CharString index="441">
            129 callgsubr
            84 return
          </CharString>
          <CharString index="442">
            82 0 114 callsubr
            433.449996948 -56 callsubr
            -19 callgsubr
            return
          </CharString>
          <CharString index="443">
            vstem
            327 callgsubr
            412 callgsubr
            rmoveto
            507 callgsubr
            -84 129 callgsubr
            return
          </CharString>
          <CharString index="444">
            -9 -7 -12 -13 -2 -15 6 -1 rcurveline
            17 48 67 26 51 hhcurveto
            27 12 -19 -10 6 hvcurveto
            -5 hlineto
            return
          </CharString>
          <CharString index="445">
            hstem
            261 callsubr
            71 vstem
            270.5 return
          </CharString>
          <CharString index="446">
            hstem
            30 293.059997559 vstem
            175.220001221 return
          </CharString>
          <CharString index="447">
            -20 141 callgsubr
            return
          </CharString>
          <CharString index="448">
            rlineto
            246 callsubr
            return
          </CharString>
          <CharString index="449">
            107 -62.5 vlineto
            return
          </CharString>
          <CharString index="450">
            31.2899932861 return
          </CharString>
          <CharString index="451">
            18.9400024414 return
          </CharString>
          <CharString index="452">
            -36.0299987793 return
          </CharString>
          <CharString index="453">
            616.419998169 return
          </CharString>
          <CharString index="454">
            189.320007324 return
          </CharString>
          <CharString index="455">
            -110.100006104 return
          </CharString>
          <CharString index="456">
            75.2899932861 return
          </CharString>
          <CharString index="457">
            rmoveto
            289.029998779 96.6499938965 vlineto
            103.710006714 61.6699981689 return
          </CharString>
          <CharString index="458">
            51.1000061035 17 202.929992676 15.1300048828 180.520004272 rcurveline
            return
          </CharString>
          <CharString index="459">
            15.8699951172 48 39.2299957275 77.5099945068 vvcurveto
            77.7400054932 return
          </CharString>
          <CharString index="460">
            196.509994507 hstem
            94.4799957275 170.070007324 vstem
            264.550003052 return
          </CharString>
          <CharString index="461">
            -46.7400054932 -55.1300048828 hvcurveto
            42.2599945068 -49.8699951172 rlineto
            return
          </CharString>
          <CharString index="462">
            vhcurveto
            1.10000610352 -482.38999939 rmoveto
            -83.1000061035 -50.5500030518 return
          </CharString>
          <CharString index="463">
            76.8999938965 -25.6799926758 rlineto
            endchar
          </CharString>
          <CharString index="464">
            -86.4499969482 56.4900054932 -138.940002441 hvcurveto
            -80.7400054932 return
          </CharString>
          <CharString index="465">
            566.36000061 -14 callgsubr
            228 callgsubr
            124 callgsubr
            return
          </CharString>
          <CharString index="466">
            -11.4799957275 -34 callsubr
            450.199996948 67.1799926758 hstem
            return
          </CharString>
          <CharString index="467">
            161 callsubr
            175 callgsubr
            262.36000061 175 callgsubr
            return
          </CharString>
          <CharString index="468">
            242 84 rmoveto
            25 13 77 110 116 hhcurveto
            46 51 -15 -8 22 hvcurveto
            1 -4 rlineto
            return
          </CharString>
          <CharString index="469">
            -93 174 callsubr
            -65 -103 -103 67 -64 92.5 93.5 return
          </CharString>
          <CharString index="470">
            147 callsubr
            hstem
            69 262 vstem
            331 return
          </CharString>
          <CharString index="471">
            -73.2200012207 55 -83.8699951172 9 return
          </CharString>
          <CharString index="472">
            -190.190002441 -21 31.3500061035 -21 return
          </CharString>
          <CharString index="473">
            451.710006714 437 callsubr
            return
          </CharString>
          <CharString index="474">
            55 -50 callsubr
            return
          </CharString>
          <CharString index="475">
            139 callgsubr
            hstem
            return
          </CharString>
          <CharString index="476">
            110 callgsubr
            hstemhm
            return
          </CharString>
          <CharString index="477">
            862.5 rmoveto
            return
          </CharString>
          <CharString index="478">
            -71 238 callsubr
            return
          </CharString>
          <CharString index="479">
            -1.86999511719 return
          </CharString>
          <CharString index="480">
            100.580001831 return
          </CharString>
          <CharString index="481">
            71.5399932861 return
          </CharString>
          <CharString index="482">
            -67.1999969482 return
          </CharString>
          <CharString index="483" raw="1">
            b3af4ef8 290a0b  
          </CharString>
          <CharString index="484">
            102 callgsubr
            -233.38999939 return
          </CharString>
          <CharString index="485">
            -160.679992676 -62.3300018311 -65.2200012207 -100.869995117 return
          </CharString>
          <CharString index="486">
            74.5399932861 168.970016479 279 callsubr
            86.5199890137 return
          </CharString>
          <CharString index="487">
            -174.929992676 vhcurveto
            endchar
          </CharString>
          <CharString index="488">
            309 callgsubr
            230 callsubr
            hintmask 00000000
            return
          </CharString>
          <CharString index="489">
            -463 -699.5 59 -39 rlineto
            -2 708 rmoveto
            452 callgsubr
            return
          </CharString>
          <CharString index="490">
            404 callsubr
            endchar
          </CharString>
          <CharString index="491">
            367 callgsubr
            90 callsubr
            return
          </CharString>
          <CharString index="492">
            hstem
            313 callsubr
            -75 callsubr
            return
          </CharString>
          <CharString index="493">
            19.4499969482 -63.3200073242 rcurveline
            return
          </CharString>
          <CharString index="494">
            hvcurveto
            375 callsubr
            vmoveto
            return
          </CharString>
          <CharString index="495">
            425 -8.50999450684 return
          </CharString>
          <CharString index="496">
            36.0299987793 return
          </CharString>
          <CharString index="497">
            45.7100067139 return
          </CharString>
          <CharString index="498">
            30 20 20 30 hvcurveto
            return
          </CharString>
          <CharString index="499">
            -23.0700073242 return
          </CharString>
          <CharString index="500">
            97.5 return
          </CharString>
          <CharString index="501">
            hvcurveto
            -45.8099975586 -65.4499969482 rmoveto
            61.1000061035 hlineto
            return
          </CharString>
          <CharString index="502">
            21 163 callsubr
            -11.7399902344 -20 return
          </CharString>
          <CharString index="503">
            890 rmoveto
            -92 17 -29 -171.5 62 -9.5 rlineto
            return
          </CharString>
          <CharString index="504">
            hstem
            40 callgsubr
            vstem
            return
          </CharString>
          <CharString index="505">
            -76 callgsubr
            hvcurveto
            return
          </CharString>
          <CharString index="506">
            41.5 vhcurveto
            return
          </CharString>
          <CharString index="507">
            hintmask 10111000
            -809.5 vlineto
            hintmask 01111000
            442 callsubr
            10 rlineto
            return
          </CharString>
          <CharString index="508" raw="1">
            ff012294 7bf7b31d 0b 
          </CharString>
          <CharString index="509">
            hstem
            163.869995117 174 callgsubr
            vstem
            240.029998779 return
          </CharString>
          <CharString index="510">
            hvcurveto
            33.2899932861 56.2299957275 rlineto
            25.6100006104 return
          </CharString>
          <CharString index="511">
            74 callsubr
            -48 47.5 -86.5 vhcurveto
            return
          </CharString>
          <CharString index="512">
            77 68 callgsubr
            return
          </CharString>
          <CharString index="513">
            51.2899932861 128.809997559 return
          </CharString>
          <CharString index="514">
            -117.970001221 -130.490005493 return
          </CharString>
          <CharString index="515">
            316.020004272 80.2599945068 return
          </CharString>
          <CharString index="516">
            78.7400054932 return
          </CharString>
          <CharString index="517">
            190.190002441 return
          </CharString>
          <CharString index="518">
            563.5 return
          </CharString>
          <CharString index="519">
            457.029998779 return
          </CharString>
          <CharString index="520">
            82.3800048828 return
          </CharString>
          <CharString index="521">
            -71.1900024414 208.130004883 -85.7400054932 rlineto
            return
          </CharString>
          <CharString index="522">
            79.3899993896 vlineto
            87.4499969482 49.9299926758 return
          </CharString>
          <CharString index="523">
            vlineto
            57.8000030518 36.8099975586 41.9299926758 return
          </CharString>
          <CharString index="524">
            -21.0299987793 -16.7400054932 -30.3200073242 rlinecurve
            return
          </CharString>
          <CharString index="525">
            41.5399932861 65.4600067139 466.089996338 -20 return
          </CharString>
          <CharString index="526">
            rmoveto
            223 callgsubr
            return
          </CharString>
          <CharString index="527">
            69.1300048828 93.5800018311 vvcurveto
            99.7100067139 return
          </CharString>
          <CharString index="528">
            49.5500030518 hhcurveto
            81.8899993896 47.9799957275 return
          </CharString>
          <CharString index="529">
            -65.0700073242 -78.6199951172 -105.190002441 hvcurveto
            return
          </CharString>
          <CharString index="530">
            -74.5 hhcurveto
            endchar
          </CharString>
          <CharString index="531">
            -84.2599945068 -64.1300048828 -90.1300048828 return
          </CharString>
          <CharString index="532">
            -37.3800048828 -64.7400054932 -26.3600006104 return
          </CharString>
          <CharString index="533">
            -182.479995728 -8.9700012207 -36.6499938965 return
          </CharString>
          <CharString index="534">
            152.029998779 139.839996338 99.5800018311 return
          </CharString>
          <CharString index="535">
            -165 rmoveto
            11 9 -9 -11 hvcurveto
            -74 vlineto
            -11 -9 -9 -11 vhcurveto
            return
          </CharString>
          <CharString index="536">
            -74.9100036621 -64.1300048828 -87.5099945068 return
          </CharString>
          <CharString index="537">
            118.350006104 519 callsubr
            return
          </CharString>
          <CharString index="538">
            157.449996948 140.710006714 -99.9400024414 return
          </CharString>
          <CharString index="539">
            -126.970001221 36.7799987793 -59.7100067139 return
          </CharString>
          <CharString index="540">
            -72.3300018311 79.5800018311 -129.220001221 return
          </CharString>
          <CharString index="541">
            -71.6399993896 105.029998779 -152.36000061 return
          </CharString>
          <CharString index="542">
            520 callsubr
            197 callgsubr
            return
          </CharString>
          <CharString index="543">
            90.2299957275 hintmask 00000000
            return
          </CharString>
          <CharString index="544">
            372 callgsubr
            -84 return
          </CharString>
          <CharString index="545">
            hintmask 00000000
            hintmask 11110110
            return
          </CharString>
          <CharString index="546">
            hstem
            343 callsubr
            return
          </CharString>
          <CharString index="547">
            rmoveto
            410 callgsubr
            return
          </CharString>
          <CharString index="548">
            -613.679992676 return
          </CharString>
          <CharString index="549">
            82.5 return
          </CharString>
          <CharString index="550">
            295.61000061 return
          </CharString>
          <CharString index="551">
            54.3200073242 return
          </CharString>
          <CharString index="552">
            -54.7400054932 return
          </CharString>
          <CharString index="553">
            87.5 return
          </CharString>
          <CharString index="554">
            -97.5 return
          </CharString>
          <CharString index="555">
            -170.320007324 return
          </CharString>
          <CharString index="556">
            90.3500061035 return
          </CharString>
          <CharString index="557">
            456.289993286 return
          </CharString>
          <CharString index="558">
            0.00999450683594 return
          </CharString>
          <CharString index="559">
            -238 56 -11.5099945068 -21 328 callgsubr
            return
          </CharString>
          <CharString index="560">
            -20 hstemhm
            478 callgsubr
            227.329986572 84 return
          </CharString>
          <CharString index="561">
            137 callgsubr
            0 -20 451 callgsubr
            -20 hstemhm
            return
          </CharString>
          <CharString index="562">
            -67.8099975586 rcurveline
            111 36.1000061035 return
          </CharString>
          <CharString index="563">
            819 117 callgsubr
            rlineto
            return
          </CharString>
          <CharString index="564">
            670.5 rmoveto
            -59 38.5 rlineto
            return
          </CharString>
          <CharString index="565">
            499 251.5 hstemhm
            return
          </CharString>
          <CharString index="566">
            425.5 return
          </CharString>
          <CharString index="567">
            33.8000030518 return
          </CharString>
          <CharString index="568">
            -130.479995728 return
          </CharString>
          <CharString index="569">
            91.4100036621 return
          </CharString>
          <CharString index="570">
            55.6499938965 return
          </CharString>
          <CharString index="571">
            -56.1600036621 return
          </CharString>
          <CharString index="572">
            384.5 return
          </CharString>
          <CharString index="573">
            458.089996338 return
          </CharString>
          <CharString index="574">
            82.1600036621 return
          </CharString>
          <CharString index="575">
            120.970001221 return
          </CharString>
          <CharString index="576">
            180.160003662 return
          </CharString>
          <CharString index="577">
            -54.3200073242 return
          </CharString>
          <CharString index="578">
            9.7799987793 -21 32.2200012207 -21 return
          </CharString>
          <CharString index="579">
            hstem
            95.9700012207 219 callgsubr
            vstem
            return
          </CharString>
          <CharString index="580">
            rmoveto
            -563.479995728 144.869995117 vlineto
            return
          </CharString>
          <CharString index="581">
            hstem
            198.289993286 53 callgsubr
            vstem
            return
          </CharString>
          <CharString index="582">
            451 callsubr
            vhcurveto
            endchar
          </CharString>
          <CharString index="583">
            314 callsubr
            hstemhm
            return
          </CharString>
          <CharString index="584">
            375 callgsubr
            rmoveto
            return
          </CharString>
          <CharString index="585">
            rlineto
            192 callsubr
            return
          </CharString>
          <CharString index="586">
            114 callsubr
            hstem
            return
          </CharString>
          <CharString index="587">
            vstem
            -79 callgsubr
            return
          </CharString>
          <CharString index="588">
            0 71 501 -20 hstem
            return
          </CharString>
          <CharString index="589">
            rmoveto
            63.3200073242 return
          </CharString>
          <CharString index="590">
            -75 callsubr
            vlineto
            return
          </CharString>
          <CharString index="591">
            56.2799987793 84 return
          </CharString>
          <CharString index="592">
            -56 callsubr
            hstemhm
            return
          </CharString>
          <CharString index="593">
            -2.41999816895 506.419998169 rmoveto
            return
          </CharString>
          <CharString index="594">
            rlineto
            -60.7100067139 287.160003662 return
          </CharString>
          <CharString index="595">
            hhcurveto
            -147.029998779 -85.7400054932 return
          </CharString>
          <CharString index="596">
            374 callsubr
            289 callsubr
            return
          </CharString>
          <CharString index="597">
            rlineto
            107.869995117 48.7100067139 return
          </CharString>
          <CharString index="598">
            -14 callgsubr
            hstem
            57.5700073242 return
          </CharString>
          <CharString index="599">
            -62 -162.419998169 -161.649993896 return
          </CharString>
          <CharString index="600">
            -158.800003052 hvcurveto
            -95.3899993896 return
          </CharString>
          <CharString index="601">
            329.449996948 141 callsubr
            vstem
            return
          </CharString>
          <CharString index="602">
            460.5 333 callsubr
            return
          </CharString>
          <CharString index="603">
            hstemhm
            330 callsubr
            return
          </CharString>
          <CharString index="604">
            228 callgsubr
            165 callgsubr
            return
          </CharString>
          <CharString index="605">
            45 callgsubr
            hintmask 00000000
            return
          </CharString>
          <CharString index="606">
            53 callgsubr
            hintmask 00000000
            return
          </CharString>
          <CharString index="607">
            46 94 callgsubr
            return
          </CharString>
          <CharString index="608">
            21 -21 218.419998169 return
          </CharString>
          <CharString index="609">
            48.7400054932 return
          </CharString>
          <CharString index="610">
            -19.5 return
          </CharString>
          <CharString index="611">
            151.089996338 return
          </CharString>
          <CharString index="612">
            341.580001831 return
          </CharString>
          <CharString index="613">
            -0.00999450683594 return
          </CharString>
          <CharString index="614">
            77.4499969482 return
          </CharString>
          <CharString index="615">
            492.800003052 return
          </CharString>
          <CharString index="616">
            64.7100067139 return
          </CharString>
          <CharString index="617">
            -191.619995117 return
          </CharString>
          <CharString index="618">
            -53.8699951172 return
          </CharString>
          <CharString index="619">
            35.2200012207 return
          </CharString>
          <CharString index="620">
            55.2599945068 return
          </CharString>
          <CharString index="621">
            -110.679992676 return
          </CharString>
          <CharString index="622">
            -371.5 return
          </CharString>
          <CharString index="623">
            -495.419998169 return
          </CharString>
          <CharString index="624">
            -52.5 return
          </CharString>
          <CharString index="625">
            197.740005493 return
          </CharString>
          <CharString index="626">
            121.229995728 74.9700012207 return
          </CharString>
          <CharString index="627">
            -117.970001221 461 callsubr
            return
          </CharString>
          <CharString index="628">
            -503 584.5 213 hstemhm
            return
          </CharString>
          <CharString index="629">
            61.6699981689 -38.0700073242 return
          </CharString>
          <CharString index="630">
            154.289993286 49 callgsubr
            return
          </CharString>
          <CharString index="631">
            -6 188 callgsubr
            hstemhm
            77 406 return
          </CharString>
          <CharString index="632">
            63.3600006104 -112.190002441 return
          </CharString>
          <CharString index="633">
            hintmask 00000000
            hintmask 11110100
            return
          </CharString>
        <CharString name=".notdef">
          163 -500 52 496 72 283 48 547 52 hstemhm
          123 55 102 70 -60 50 41 54 54 54 hintmask 1011101110000000
          543 -500 rmoveto
          1550 -420 -1550 vlineto
          55 1498 rmoveto
          311 -1446 -311 hlineto
          146 899 rmoveto
          -39 -54 -12 -27 -13 9 -10 15 4 4 1 2 5 hvcurveto
          8 17 14 3 21 hhcurveto
          50 11 -30 -39 -53 -19 -20 -72 -4 hvcurveto
          -84 vlineto
          -15 12 -9 13 12 13 9 15 vhcurveto
          45 vlineto
          67 10 28 38 70 vvcurveto
          60 -25 55 -86 vhcurveto
          hintmask 1111110110000000
          -9 -331 rmoveto
          -20 -15 -15 -20 -21 15 -16 20 20 15 16 21 20 -15 15 -20 hvcurveto
          endchar
        </CharString>
        <CharString name="A">
          -54 callsubr
          135 callsubr
          hintmask 11011000
          417.720001221 176.350006104 -100 callgsubr
          hintmask 11101000
          23 callsubr
        </CharString>
        <CharString name="AE">
          103 callgsubr
          756.190002441 -51 callsubr
          -35 callgsubr
        </CharString>
        <CharString name="AEacute">
          103 callgsubr
          377.5 756 108 callgsubr
          400.690002441 -731.070007324 -35 callgsubr
        </CharString>
        <CharString name="Aacute">
          -54 callsubr
          135 callsubr
          hintmask 11011000
          513 callgsubr
          756 108 callgsubr
          246.220001221 -624.649993896 -100 callgsubr
          hintmask 11101000
          23 callsubr
        </CharString>
        <CharString name="Abreve">
          -54 callsubr
          462 callsubr
          65 455 callgsubr
          284 -87 callgsubr
          133.720001221 -583.149993896 -100 callgsubr
          hintmask 11101100
          23 callsubr
        </CharString>
        <CharString name="Acircumflex">
          -54 callsubr
          135 callsubr
          hintmask 11011000
          161 760 180 callgsubr
          293.720001221 -625.149993896 -100 callgsubr
          hintmask 11101000
          23 callsubr
        </CharString>
        <CharString name="Adieresis">
          -54 callsubr
          113.910003662 106 hstemhm
          129.5 -67 callgsubr
          hintmask 11011110
          183 -46 callsubr
          30.2200012207 -605.649993896 -100 callgsubr
          hintmask 11101110
          23 callsubr
        </CharString>
        <CharString name="Agrave">
          -54 callsubr
          135 callsubr
          hintmask 11011000
          238 callsubr
          756 rmoveto
          22 45 -198 104.5 -36 -71 rlineto
          258.220001221 -658.149993896 -100 callgsubr
          hintmask 11101000
          23 callsubr
        </CharString>
        <CharString name="Alpha">
          -54 callsubr
          135 callsubr
          hintmask 11011000
          417.720001221 176.350006104 -100 callgsubr
          hintmask 11101000
          23 callsubr
        </CharString>
        <CharString name="Alphatonos">
          68 21 -21 176.350006104 70.8099975586 368.899993896 72.0299987793 -0.0899963378906 341 callgsubr
          hstemhm
          1 561.61000061 hintmask 11001100
          64 498 rmoveto
          hintmask 11010100
          69.5 190 -96 17 -36.5 -197 rlineto
          416.720001221 -331.649993896 rmoveto
          53.5399932861 -176.350006104 rlineto
          91.3500061035 hlineto
          hintmask 11001100
          -77 callsubr
          53.8600006104 176.350006104 rlineto
          246.300003052 70.8099975586 rmoveto
          -224.669998169 hlineto
          hintmask 11100100
          23 callsubr
        </CharString>
        <CharString name="Amacron">
          -54 callsubr
          121.910003662 64 hstemhm
          153 226 callsubr
          hintmask 11011100
          418.5 790 258 callsubr
          264.720001221 -613.649993896 -100 callgsubr
          hintmask 11101100
          23 callsubr
        </CharString>
        <CharString name="Aogonek">
          68 -228.509994507 -64 callsubr
          185.009994507 -21 176.350006104 109 callsubr
          368.909988403 72.0299987793 0 -20 hstemhm
          331 74 hintmask 11101100
          562.61000061 hmoveto
          -77 callsubr
          53.8600006104 176.350006104 rlineto
          267.789993286 hlineto
          49.0599975586 -161.600006104 rlineto
          -92.1300048828 -35.9199981689 -43.6499938965 -46.2100067139 -62.6300048828 -86 callsubr
          100 callsubr
          hvcurveto
          -131.279998779 247.160003662 rmoveto
          -224.669998169 hlineto
          hintmask 11110100
          112.669998169 368.910003662 rlineto
          endchar
        </CharString>
        <CharString name="Aring">
          -54 callsubr
          83.9100036621 187 callsubr
          113 47 hstemhm
          175.5 57 107 57 hintmask 11011111
          286 752 -5 callsubr
          131.720001221 -735.149993896 -100 callgsubr
          hintmask 11101111
          23 callsubr
        </CharString>
        <CharString name="Atilde">
          -54 callsubr
          116.410003662 27 callgsubr
          8.44999694824 554.160003662 hintmask 11010110
          228 832 rmoveto
          hintmask 11011010
          35.5 25.5 -47.5 58.5 hhcurveto
          -92 callgsubr
          hintmask 11010110
          -102 callgsubr
          189.720001221 -655.649993896 -100 callgsubr
          hintmask 11100110
          23 callsubr
        </CharString>
        <CharString name="B">
          -81 callgsubr
        </CharString>
        <CharString name="Beta">
          -81 callgsubr
        </CharString>
        <CharString name="C">
          -21 callsubr
        </CharString>
        <CharString name="CR">
          -235 endchar
        </CharString>
        <CharString name="Cacute">
          107 callsubr
          466 -29 callsubr
          87.5099945068 -56.1699981689 -91 callgsubr
        </CharString>
        <CharString name="Cacute.loclPLK">
          107 callsubr
          467 86 callsubr
          3.50999450684 -33.6699981689 -91 callgsubr
        </CharString>
        <CharString name="Ccaron">
          107 callsubr
          509 -13 callsubr
          -33.9900054932 -54.6699981689 -91 callgsubr
        </CharString>
        <CharString name="Ccedilla">
          55 452 callsubr
          159.809997559 -72.2799987793 72.2799987793 -72.2700042725 72.2700042725 358 callsubr
          159.820007324 62.5099945068 145 callgsubr
          71 hintmask 0101011100000000
          25 callgsubr
          -218.11000061 106.619995117 -123.229995728 150.279998779 -13.6199951172 hvcurveto
          hintmask 0110011100000000
          -9.97999572754 -87.5299987793 rlineto
          hintmask 1010011110000000
          -49 callsubr
          hintmask 0101011100000000
          136 callgsubr
          hintmask 1001011110000000
          -25 callsubr
          hintmask 0110011100000000
          84 callsubr
          hintmask 0100111100000000
          47.5399932861 vlineto
          75.9499969482 6.80000305176 55.3500061035 32.7799987793 33.7299957275 34.5899963379 rrcurveto
          endchar
        </CharString>
        <CharString name="Ccircumflex">
          107 callsubr
          346 -74 callgsubr
          120.009994507 -60.1699981689 -91 callgsubr
        </CharString>
        <CharString name="Cdotaccent">
          367 callsubr
          73.5399932861 566.36000061 -14 callgsubr
          84.6700134277 115 208 callgsubr
          136.830001831 119 vstem
          345.5 899.5 rmoveto
          -91 callsubr
          -3.99000549316 -199.669998169 -91 callgsubr
        </CharString>
        <CharString name="Chi">
          -35 callsubr
        </CharString>
        <CharString name="D">
          220 callgsubr
          102.580001831 688.089996338 75 callgsubr
        </CharString>
        <CharString name="Dcaron">
          220 callgsubr
          464.5 -13 callsubr
          -228.419998169 -66.4100036621 75 callgsubr
        </CharString>
        <CharString name="Dcroat">
          25 callsubr
        </CharString>
        <CharString name="Delta">
          97 callgsubr
        </CharString>
        <CharString name="E">
          -5 callgsubr
        </CharString>
        <CharString name="Eacute">
          -62 callsubr
          39 callgsubr
          409 -29 callsubr
          262.550003052 -137.839996338 60 callgsubr
          -84 callgsubr
        </CharString>
        <CharString name="Ebreve">
          -62 callsubr
          71.4100036621 65 39 callgsubr
          288 -87 callgsubr
          327 callsubr
          -141.339996338 60 callgsubr
          -84 callgsubr
        </CharString>
        <CharString name="Ecaron">
          -62 callsubr
          39 callgsubr
          452 -13 callsubr
          141.050003052 -136.339996338 60 callgsubr
          -84 callgsubr
        </CharString>
        <CharString name="Ecircumflex">
          -62 callsubr
          39 callgsubr
          289.5 -74 callgsubr
          294.550003052 -141.839996338 60 callgsubr
          -84 callgsubr
        </CharString>
        <CharString name="Edieresis">
          -62 callsubr
          93.9100036621 106 66 callsubr
          -55.8200073242 -67 callgsubr
          438 callsubr
          187 888 -107 callgsubr
          68.0500030518 -269.839996338 60 callgsubr
          hintmask 11101000
          -84 callgsubr
        </CharString>
        <CharString name="Edotaccent">
          -62 callsubr
          96.4100036621 115 -40 callsubr
          40.6799926758 119 vstem
          289 899.5 rmoveto
          -91 callsubr
          170.550003052 -281.339996338 60 callgsubr
          -84 callgsubr
        </CharString>
        <CharString name="Egrave">
          -62 callsubr
          39 callgsubr
          397.5 -12 callgsubr
          84.0500030518 -137.839996338 60 callgsubr
          -84 callgsubr
        </CharString>
        <CharString name="Emacron">
          -62 callsubr
          101.910003662 64 66 callsubr
          -32.8200073242 226 callsubr
          hintmask 11110100
          156.5 790 -37 callgsubr
          303.050003052 -235.839996338 60 callgsubr
          hintmask 11111000
          -84 callgsubr
        </CharString>
        <CharString name="Eng">
          178 396 callgsubr
          591.25 96.8399963379 161 callsubr
          187 callgsubr
          182 callsubr
          hintmask 10111100
          509 callgsubr
          186 callsubr
          -81.3899993896 -385.550003052 hlineto
          -85.0299987793 9.83999633789 -104.190002441 2 -19.1000061035 vhcurveto
          -3.61000061035 hlineto
          -287.199996948 309 callsubr
          -115.029998779 -63 callsubr
          187 callgsubr
          331.740005493 hlineto
          126.839996338 -7.10000610352 78 -4.74000549316 54.6699981689 vhcurveto
          3.61999511719 hlineto
          hintmask 11011100
          284.710006714 -591.259994507 rlineto
          43.7700042725 hlineto
          -4.94999694824 -96.0800018311 -36.75 -24.4299926758 -68.1699981689 -32.7100067139 22.9400024414 -56.7100067139 rcurveline
          107.869995117 48.7100067139 52.8000030518 386 callgsubr
          endchar
        </CharString>
        <CharString name="Eogonek">
          27 -228.5 -64 callsubr
          164 -51 callsubr
          246.330001831 69.8000030518 232.100006104 419 callgsubr
          53.6799926758 74 vstem
          477.380004883 -51 callsubr
          rmoveto
          -288.059997559 246.330001831 234.580001831 69.8000030518 -234.580001831 232.100006104 270.220001221 hlineto
          28 callsubr
          -367.059997559 -63 callsubr
          242.279998779 hlineto
          -68.9600067139 -33.6300048828 -32.8999938965 -42 -54.3699951172 -86 callsubr
          100 callsubr
          hvcurveto
          37.8800048828 hlineto
          endchar
        </CharString>
        <CharString name="Epsilon">
          -5 callgsubr
        </CharString>
        <CharString name="Epsilontonos">
          -62 callsubr
          39 callgsubr
          80 155 callgsubr
          449.050003052 120.160003662 60 callgsubr
          -84 callgsubr
        </CharString>
        <CharString name="Eta">
          5 callsubr
          488.350006104 325.839996338 -31 callgsubr
        </CharString>
        <CharString name="Etatonos">
          175 21 -21 325.839996338 83 callgsubr
          290.490005493 -20 20.0899963379 -20 hstemhm
          93 callgsubr
          hintmask 00000000
          hintmask 11101100
          80 155 callgsubr
          477.850006104 -172.160003662 rmoveto
          -325.839996338 483 callsubr
          hintmask 11011100
          -55 callsubr
          -86.7400054932 -290.580001831 -299.029998779 148 callgsubr
          -86.7400054932 138 callsubr
          325.839996338 vlineto
          endchar
        </CharString>
        <CharString name="Eth">
          25 callsubr
        </CharString>
        <CharString name="Euro">
          -57 callsubr
        </CharString>
        <CharString name="Euro.osf">
          -57 callsubr
        </CharString>
        <CharString name="Euro.tf">
          -50 callsubr
          70.8099975586 184.520004272 312 callsubr
          326 callgsubr
          57.6100006104 178.869995117 289 callgsubr
          111.550003052 89.3600006104 vstem
          419.190002441 243.580001831 rmoveto
          12.9700012207 312 callsubr
          rlineto
          -231.25 326 callgsubr
          250.509994507 hlineto
          13.9700012207 57.6100006104 rlineto
          -259.669998169 hlineto
          127.149993896 25.0200042725 60.0299987793 51.7200012207 80.9499969482 hhcurveto
          325 callsubr
          37.8699951172 -13.8699951172 -29.8999938965 48.6399993896 hvcurveto
          33.2899932861 58.0899963379 rlineto
          36.7400054932 -54.4799957275 -56.5800018311 18.8699951172 -67.9700012207 hhcurveto
          -123.990005493 -97.7400054932 -84.6000061035 -164.199996948 -31.4499969482 hvcurveto
          -73.6300048828 hlineto
          -13.9700012207 -57.6199951172 rlineto
          83.9700012207 -92.9700012207 -70 hlineto
          -13.9700012207 -56.8699951172 rlineto
          86.5099945068 hlineto
          -170.039993286 24.7100067139 88.4400024414 -85.2799987793 137.119995117 hhcurveto
          62.1000061035 45.8699951172 15.8699951172 22.3899993896 44.3500061035 286 callsubr
          -39.5099945068 -41.9700012207 -19.7400054932 -58.2599945068 hhcurveto
          -100.949996948 -55.4499969482 52.1399993896 132.369995117 -17.1000061035 hvcurveto
          endchar
        </CharString>
        <CharString name="Euro.tosf">
          -50 callsubr
          70.8099975586 174.520004272 56.7400054932 93.0899963379 57.6199951172 167.38999939 289 callgsubr
          128.289993286 89.3600006104 vstem
          429.190002441 233.580001831 rmoveto
          12.9700012207 56.7400054932 rlineto
          -224.509994507 93.0899963379 243.770004272 hlineto
          13.9700012207 57.6199951172 rlineto
          -252.520004272 hlineto
          116.289993286 24.8800048828 312 callsubr
          51.1000061035 78.8399963379 hhcurveto
          54.1300048828 35.7400054932 -13.8699951172 -29.9100036621 48.3800048828 hvcurveto
          33.2899932861 58.1000061035 rlineto
          36.7400054932 -54.2200012207 -54.4499969482 18.8699951172 -66.2299957275 hhcurveto
          -121.960006714 -94.4799957275 -84.1199951172 -153.199996948 -31.4799957275 hvcurveto
          -73.8899993896 hlineto
          -13.9700012207 -57.6199951172 rlineto
          83.9700012207 -93.0899963379 -70 hlineto
          -13.9700012207 -56.7400054932 rlineto
          86.6499938965 hlineto
          -160.419998169 24.6999969482 85.2700042725 -84.9100036621 135.149993896 hhcurveto
          60.3600006104 43.7400054932 15.8699951172 22.3899993896 44.0899963379 286 callsubr
          -39.2599945068 -39.8399963379 -19.7400054932 -56.5099945068 hhcurveto
          -98.8899993896 -52.4199981689 51.7100067139 122.800003052 -17.0099945068 hvcurveto
          endchar
        </CharString>
        <CharString name="F">
          -14 21 -21 306.61000061 197 callsubr
          242.61000061 69.9299926758 385 callsubr
          vstem
          452.800003052 618.160003662 60 callgsubr
          -360.330001831 138 callsubr
          306.61000061 227.970001221 197 callsubr
          -227.970001221 242.61000061 hlineto
          endchar
        </CharString>
        <CharString name="G">
          70 callgsubr
          113 callgsubr
          92.1000061035 329.449996948 -14 callsubr
          endchar
        </CharString>
        <CharString name="Gamma">
          143 callsubr
        </CharString>
        <CharString name="Gbreve">
          70 callgsubr
          59.6600036621 65 208 callgsubr
          494 callsubr
          352.5 -87 callgsubr
          -1.02000427246 -59.6600036621 -69 callsubr
        </CharString>
        <CharString name="Gcircumflex">
          70 callgsubr
          208 callgsubr
          494 callsubr
          354 -74 callgsubr
          121.979995728 -60.1600036621 -69 callsubr
        </CharString>
        <CharString name="Gcommaaccent">
          70 callgsubr
          113 callgsubr
          92.1000061035 140.319992065 142 callsubr
          80.6300048828 -14 callsubr
          -6.97999572754 -778.839996338 -101 callgsubr
        </CharString>
        <CharString name="Gdotaccent">
          70 callgsubr
          84.6600036621 115 208 callgsubr
          144.830001831 119 65.6199951172 141 callsubr
          vstem
          353.5 899.5 rmoveto
          -91 callsubr
          -2.02000427246 -199.660003662 -69 callsubr
        </CharString>
        <CharString name="H">
          5 callsubr
          488.350006104 325.839996338 -31 callgsubr
        </CharString>
        <CharString name="Hbar">
          180 21 -21 326 132 callgsubr
          111.789993286 63.1900024414 -63.1900024414 178.710006714 hstemhm
          106.5 87 299 281 callsubr
          hintmask 11101100
          645.770004272 509.289993286 rmoveto
          63.1900024414 -66.7700042725 vlineto
          hintmask 11011100
          115.520004272 -86.5 vlineto
          hintmask 11101100
          -115.520004272 -299 vlineto
          hintmask 11011100
          115.520004272 -87 vlineto
          hintmask 11101100
          -115.520004272 -68.9199981689 -63.1900024414 68.9199981689 -509.289993286 87 326 299 -326 281 callsubr
          509.289993286 vlineto
          -86.5 hmoveto
          -111.789993286 -299 111.789993286 vlineto
          endchar
        </CharString>
        <CharString name="Hcircumflex">
          5 callsubr
          338.5 -74 callgsubr
          274.350006104 -434.160003662 -31 callgsubr
        </CharString>
        <CharString name="I">
          28 callgsubr
          410 callsubr
          hmoveto
          -28 callsubr
        </CharString>
        <CharString name="IJ">
          91 21 -21 688 341 callgsubr
          161 callsubr
          54 callgsubr
          220.309997559 281 callsubr
          hintmask 10111000
          410 callsubr
          371 callgsubr
          -87.6100006104 160 callsubr
          hintmask 11011000
          394.419998169 688 rmoveto
          -86.5 -589.5 hlineto
          -92 503 callsubr
          -39 -91 -37 vhcurveto
          23 -63 rlineto
          111 36.5 63 148 callsubr
          138.5 vvcurveto
          endchar
        </CharString>
        <CharString name="Iacute">
          28 callgsubr
          266 -29 callsubr
          136.190002441 -756 rmoveto
          -28 callsubr
        </CharString>
        <CharString name="Ibreve">
          77 callgsubr
          462 callsubr
          65 81 callsubr
          144.5 -87 callgsubr
          45.6900024414 -759.5 rmoveto
          -28 callsubr
        </CharString>
        <CharString name="Icircumflex">
          28 callgsubr
          146 -74 callgsubr
          168.690002441 -760 rmoveto
          -28 callsubr
        </CharString>
        <CharString name="Idieresis">
          77 callgsubr
          113.910003662 106 hstemhm
          -10 106.5 6.08000183105 54 callgsubr
          4.80999755859 500 callgsubr
          43.5 888 -97 callgsubr
          -57.8099975586 -888 rmoveto
          -28 callsubr
        </CharString>
        <CharString name="Idotaccent">
          77 callgsubr
          116.410003662 115 hstemhm
          281 callsubr
          119 -102.919998169 54 callgsubr
          357 callgsubr
          145.5 899.5 rmoveto
          -91 callsubr
          hintmask 11101000
          44.6900024414 -899.5 rmoveto
          -28 callsubr
        </CharString>
        <CharString name="Igrave">
          28 callgsubr
          254 -12 callgsubr
          -41.8099975586 -756 rmoveto
          -28 callsubr
        </CharString>
        <CharString name="Imacron">
          77 callgsubr
          121.910003662 64 81 callsubr
          13 790 -37 callgsubr
          177.190002441 -854 rmoveto
          -28 callsubr
        </CharString>
        <CharString name="Iogonek">
          -210 -228.509994507 -64 callsubr
          185 -21 688.099990845 -20 hstem
          -6.5 74 35.0800018311 87.5099945068 vstem
          410 callsubr
          186 callsubr
          -87.6100006104 -684.669998169 hlineto
          -73.8899993896 -34.1900024414 -35.1900024414 -43 -56.2400054932 -86 callsubr
          100 callsubr
          hvcurveto
          endchar
        </CharString>
        <CharString name="Iota">
          28 callgsubr
          410 callsubr
          hmoveto
          -28 callsubr
        </CharString>
        <CharString name="Iotadieresis">
          77 callgsubr
          113.910003662 106 hstemhm
          -10 106.5 6.08000183105 54 callgsubr
          4.80999755859 500 callgsubr
          43.5 888 -97 callgsubr
          -57.8099975586 -888 rmoveto
          -28 callsubr
        </CharString>
        <CharString name="Iotatonos">
          -210 21 -21 688 341 callgsubr
          161 callsubr
          54 callgsubr
          hintmask 00000000
          hintmask 11010000
          80 155 callgsubr
          179.690002441 -498 rmoveto
          hintmask 10110000
          -28 callsubr
        </CharString>
        <CharString name="Itilde">
          77 callgsubr
          116.410003662 27 callgsubr
          102.580001831 54 callgsubr
          hintmask 00000000
          hintmask 11101000
          207.5 449 callgsubr
          -22 callgsubr
          -17.3099975586 -784.5 rmoveto
          -28 callsubr
        </CharString>
        <CharString name="J">
          235 callsubr
          204.190002441 688.089996338 43 callsubr
        </CharString>
        <CharString name="Jcircumflex">
          235 callsubr
          160.5 -74 callgsubr
          168.190002441 -71.9100036621 43 callsubr
        </CharString>
        <CharString name="K">
          234 callsubr
          34 callgsubr
          endchar
        </CharString>
        <CharString name="Kappa">
          234 callsubr
          34 callgsubr
          endchar
        </CharString>
        <CharString name="Kcommaaccent">
          234 callsubr
          -14 callgsubr
          142 callsubr
          34 callgsubr
          -263.699996948 -79 -101 callgsubr
        </CharString>
        <CharString name="L">
          -11 0 174 callgsubr
          611.929992676 -20 39 callgsubr
          189.320007324 174 callgsubr
          rmoveto
          70 callsubr
          endchar
        </CharString>
        <CharString name="Lacute">
          -11 0 174 callgsubr
          611.929992676 -20 39 callgsubr
          266 -29 callsubr
          135.320007324 -679.839996338 rmoveto
          70 callsubr
          endchar
        </CharString>
        <CharString name="Lambda">
          68 21 -21 616.059997559 72.0299987793 0 -20 135 callsubr
          hintmask 10110000
          562.61000061 hmoveto
          -77 callsubr
          hintmask 11010000
          188.160003662 616.059997559 187.029998779 -616.059997559 rlineto
          endchar
        </CharString>
        <CharString name="Lcaron">
          -11 0 174 callgsubr
          611.839996338 341 callgsubr
          28.9100036621 224 callsubr
          hintmask 00000000
          hintmask 11001000
          342 688 rmoveto
          hintmask 10011000
          175 callsubr
          -108.679992676 -432.339996338 rmoveto
          hintmask 10101000
          70 callsubr
          endchar
        </CharString>
        <CharString name="Lcommaaccent">
          -11 0 174 callgsubr
          611.929992676 287 callgsubr
          42.1799926758 142 callsubr
          400 callgsubr
          174 callgsubr
          rmoveto
          70 callsubr
          -187.100006104 -155.160003662 -101 callgsubr
        </CharString>
        <CharString name="Ldot">
          -11 0 174 callgsubr
          249.339996338 115 247.589996338 287 callgsubr
          136.679992676 119 400 callgsubr
          174 callgsubr
          rmoveto
          70 callsubr
          -88.1000061035 364.339996338 240 callsubr
        </CharString>
        <CharString name="Lslash">
          4 0 76 612 -20 hstem
          348 callgsubr
          281 callsubr
          vstem
          488 76 rmoveto
          -284 240.160003662 hlineto
          199.710006714 123.770004272 -34.7799987793 55.1000061035 -164.929992676 -102.369995117 rlineto
          295.339996338 -86.5 -349.029998779 vlineto
          -92.9199981689 -57.3600006104 34.7700042725 -55.0899963379 58.1499938965 389 callsubr
          rlineto
          -262.550003052 360 vlineto
          endchar
        </CharString>
        <CharString name="M">
          -60 callgsubr
        </CharString>
        <CharString name="Mu">
          -60 callgsubr
        </CharString>
        <CharString name="N">
          5 callgsubr
          509 callgsubr
          hmoveto
          -68 callsubr
        </CharString>
        <CharString name="Nacute">
          5 callgsubr
          470.5 -29 callsubr
          319.470001221 -756 rmoveto
          -68 callsubr
        </CharString>
        <CharString name="Nacute.loclPLK">
          5 callgsubr
          471.5 86 callsubr
          235.470001221 -733.5 rmoveto
          -68 callsubr
        </CharString>
        <CharString name="Ncaron">
          5 callgsubr
          513.5 -13 callsubr
          197.970001221 -754.5 rmoveto
          -68 callsubr
        </CharString>
        <CharString name="Ncommaaccent">
          178 0 94.2299957275 -73.2299957275 -21 592.990005493 95.1000061035 -1.52587890625e-05 -20 209 callsubr
          105.539993286 142 callsubr
          98.5700073242 187 callgsubr
          hintmask 01011010
          509 callgsubr
          hmoveto
          146 callsubr
          hintmask 10011010
          -85.0299987793 9.83999633789 -104.190002441 2 -19.1000061035 vhcurveto
          -292.800003052 309 callsubr
          -113.029998779 hlineto
          hintmask 01101110
          -63 callsubr
          237 callgsubr
          331.740005493 vlineto
          126.839996338 -7.08999633789 79.7400054932 -4.74000549316 54.6699981689 vhcurveto
          290.320007324 -593 rlineto
          -118.449996948 -79 -101 callgsubr
        </CharString>
        <CharString name="Ntilde">
          178 0 94.2299957275 -73.2299957275 -21 592.990005493 95.1000061035 -1.52587890625e-05 -20 116.410003662 27 callgsubr
          102.589996338 81.3800048828 182 callsubr
          hintmask 00000000
          hintmask 01011011
          412.5 449 callgsubr
          rmoveto
          -92 callgsubr
          hintmask 01010111
          -102 callgsubr
          hintmask 01011011
          -82 callsubr
          hintmask 01010111
          165.470001221 -784.5 rmoveto
          146 callsubr
          hintmask 10010111
          -85.0299987793 9.83999633789 -104.190002441 2 -19.1000061035 vhcurveto
          -292.800003052 309 callsubr
          -113.029998779 hlineto
          hintmask 01100111
          -16 callgsubr
        </CharString>
        <CharString name="Nu">
          5 callgsubr
          509 callgsubr
          hmoveto
          -68 callsubr
        </CharString>
        <CharString name="O">
          -23 callsubr
          345.869995117 699.839996338 -106 callsubr
          endchar
        </CharString>
        <CharString name="OE">
          397 230 callgsubr
          -59.9399871826 59.9400024414 -59.9400024414 324 callgsubr
          246.319992065 179 callsubr
          232.100006104 -51 callsubr
          -59.9299926758 59.9299926758 -59.9299926758 83 callgsubr
          209 callgsubr
          372.389984131 90.6900024414 hintmask 0011100110000000
          838.479995728 hmoveto
          324 callgsubr
          -325.770004272 vlineto
          60.4199981689 55.5399932861 35.0200042725 85.6799926758 5.30000305176 105.100006104 rrcurveto
          327 callsubr
          179 callsubr
          -172.25 hlineto
          -6.94999694824 100.380004883 -32.6600036621 80.5800018311 -54.8600006104 51.1399993896 rrcurveto
          302.36000061 hlineto
          28 callsubr
          -422.070007324 hlineto
          hintmask 1001001110000000
          7.91999816895 -23.8399963379 -25.4600067139 3.82000732422 -26.1199951172 hhcurveto
          -157.710006714 435 callsubr
          -230.229995728 117.839996338 -124 157.839996338 hvcurveto
          hintmask 0011100110000000
          24.5399932861 24.7200012207 3.86999511719 7.86999511719 22.6699981689 hvcurveto
          hintmask 0101010110000000
          -255.509994507 342.490005493 rmoveto
          201.059997559 77.8399963379 84.6199951172 108.36000061 111.220001221 74.9700012207 465 callgsubr
          -199.160003662 -202.580001831 -76.0599975586 -82.1300048828 -110.130004883 -105.619995117 -80.5800018311 82.1300048828 200.419998169 vhcurveto
          endchar
        </CharString>
        <CharString name="Oacute">
          -23 callsubr
          467 -29 callsubr
          90.8699951172 464 callsubr
          -106 callsubr
          endchar
        </CharString>
        <CharString name="Oacute.loclPLK">
          -23 callsubr
          468 86 callsubr
          6.86999511719 -33.6600036621 -106 callsubr
          endchar
        </CharString>
        <CharString name="Obreve">
          -39 callsubr
          59.6600036621 65 50 callgsubr
          345.5 -87 callgsubr
          0.369995117188 -59.6600036621 -106 callsubr
          endchar
        </CharString>
        <CharString name="Ocircumflex">
          -23 callsubr
          347 -74 callgsubr
          123.369995117 -60.1600036621 -106 callsubr
          endchar
        </CharString>
        <CharString name="Odieresis">
          -39 callsubr
          467 callsubr
          106 305 callsubr
          41.3299865723 -67 callgsubr
          39.0599975586 215 callgsubr
          244.5 888 -107 callgsubr
          -103.130004883 -188.160003662 -106 callsubr
          endchar
        </CharString>
        <CharString name="Ograve">
          -23 callsubr
          455 -12 callgsubr
          -87.1300048828 464 callsubr
          -106 callsubr
          endchar
        </CharString>
        <CharString name="Ohm">
          -40 callgsubr
        </CharString>
        <CharString name="Ohungarumlaut">
          -23 callsubr
          386 915 117 callgsubr
          -60 callsubr
          -84.1300048828 -62.1600036621 -106 callsubr
          endchar
        </CharString>
        <CharString name="Omacron">
          -39 callsubr
          90.1600036621 64 305 callsubr
          64.8299865723 265.5 62.0599975586 215 callgsubr
          214.5 790 -37 callgsubr
          131.369995117 -154.160003662 -106 callsubr
          endchar
        </CharString>
        <CharString name="Omega">
          -40 callgsubr
        </CharString>
        <CharString name="Omegatonos">
          189 0 282 callgsubr
          554.61000061 83 callgsubr
          -11.8300018311 -20 27 callsubr
          hintmask 00000000
          hintmask 10110010
          101.5 155 callgsubr
          hintmask 11010010
          313.869995117 201.830001831 rmoveto
          -170.330001831 520 callsubr
          -218.160003662 -147.710006714 37.0700073242 -81.2899932861 91.6699981689 -48.6499938965 hvcurveto
          hintmask 11001010
          134 callsubr
          hintmask 11010010
          -89.4900054932 33.3300018311 278 callgsubr
          170.61000061 vvcurveto
          192.36000061 77.8399963379 84.6100006104 118.350006104 302 callgsubr
          510 callsubr
          444 callgsubr
          -44.5800018311 -85.4199981689 -96.4499969482 -33.4199981689 vhcurveto
          hintmask 11010100
          -73.4199981689 211.130004883 282 callgsubr
          -112.710006714 vlineto
          hintmask 11010010
          100.089996338 54.5800018311 34.6199951172 79.5500030518 144.509994507 252 callsubr
          124.490005493 380 callsubr
        </CharString>
        <CharString name="Omicron">
          -23 callsubr
          345.869995117 699.839996338 -106 callsubr
          endchar
        </CharString>
        <CharString name="Omicrontonos">
          -39 callsubr
          -11.8399963379 -20 hstemhm
          46 callgsubr
          hintmask 00000000
          hintmask 10111000
          101.5 155 callgsubr
          hintmask 11011000
          313.869995117 201.839996338 -106 callsubr
          endchar
        </CharString>
        <CharString name="Oslash">
          80 callsubr
          523.479995728 797.479995728 -89 callsubr
        </CharString>
        <CharString name="Oslashacute">
          80 callsubr
          248 770.5 108 callgsubr
          297.479995728 -18.0200042725 -89 callsubr
        </CharString>
        <CharString name="Oslashacute.001">
          80 callsubr
          248 770.5 108 callgsubr
          297.479995728 -18.0200042725 -89 callsubr
        </CharString>
        <CharString name="Otilde">
          -39 callsubr
          84.6600036621 27 callgsubr
          46 callgsubr
          hintmask 00000000
          hintmask 11101100
          409 449 callgsubr
          rmoveto
          -92 callgsubr
          hintmask 11011100
          -102 callgsubr
          hintmask 11101100
          -82 callsubr
          hintmask 11011100
          -63.1300048828 -84.6600036621 -106 callsubr
          endchar
        </CharString>
        <CharString name="P">
          -52 callgsubr
        </CharString>
        <CharString name="Phi">
          302 21 -21 57 callsubr
          131 callsubr
          417.970001221 131 callsubr
          70.549987793 -20 hstem
          36.2899932861 89.4799957275 236.780014038 80.3800048828 236.779998779 89.4799957275 vstem
          769.190002441 346.350006104 rmoveto
          157.619995117 -110.910003662 105.279998779 -213.470001221 8.28999328613 vhcurveto
          70.5500030518 -84.1300048828 -70.3399963379 vlineto
          -201.130004883 -5.19999694824 -123.259994507 -95.5800018311 -172.490005493 vvcurveto
          -161.869995117 110.910003662 -105.380004883 213.470001221 -8.30000305176 vhcurveto
          -68.9299926758 253 callsubr
          68.7299957275 vlineto
          201.130004883 5.19999694824 123.259994507 95.6799926758 176.740005493 vvcurveto
          -643.419998169 372 callsubr
          rmoveto
          134.279998779 78.4299926758 65.5299987793 158.350006104 9.32000732422 vhcurveto
          -419.36000061 vlineto
          -157.149993896 5.42999267578 -79.6199951172 71.9499969482 132.850006104 vvcurveto
          317.160003662 207.740005493 rmoveto
          157.149993896 -5.42999267578 79.6199951172 -71.8399963379 -128.61000061 vvcurveto
          -138.509994507 -78.4299926758 -65.6499938965 -158.350006104 -9.32000732422 vhcurveto
          endchar
        </CharString>
        <CharString name="Pi">
          129 callsubr
        </CharString>
        <CharString name="Psi">
          185 94 callgsubr
          194.349990845 70.3699951172 423.380004883 -20 hstem
          36.2899932861 141 callsubr
          180.000015259 83.2599945068 180.869995117 141 callsubr
          vstem
          652.160003662 186 callsubr
          -85.8699951172 -255.61000061 hlineto
          -108.589996338 -58.7100067139 -50.9700012207 -122.160003662 -8.05000305176 vhcurveto
          423.220001221 -83.2599945068 -423.380004883 vlineto
          -125.509994507 7.36000061035 -54.4900054932 52.4499969482 107.949996948 vvcurveto
          255.619995117 -85.8699951172 -262.100006104 vlineto
          -140.479995728 87.9199981689 -78.0700073242 176.210006714 -13.1000061035 vhcurveto
          -194.350006104 -75 callsubr
          194.300003052 vlineto
          168.059997559 12.25 96.9400024414 74.3500061035 147.710006714 vvcurveto
          endchar
        </CharString>
        <CharString name="Q">
          184 -9.75 45.1300048828 -45.1300048828 69.6699981689 568.229995728 -14 callgsubr
          228 callgsubr
          124 callgsubr
          392.38999939 92.1000061035 hintmask 00000000
          hintmask 10111000
          472.550003052 35.3800048828 rmoveto
          98.7700042725 47.9100036621 62.8399963379 86.6699981689 173.520004272 vvcurveto
          229 callgsubr
          -116.839996338 124.479995728 -171.449996948 448 callsubr
          435 callsubr
          vhcurveto
          hintmask 01111000
          -230.229995728 117.839996338 -122 168.710006714 124.350006104 59.5800018311 -21.8399963379 -68.9700012207 77.2299957275 vhcurveto
          hintmask 10111000
          56.7100067139 73.0299987793 -49.9100036621 36.1999969482 -61.4499969482 26.4499969482 -78.1000061035 347 callgsubr
          rlinecurve
          hintmask 01111000
          -322.869995117 307.089996338 rmoveto
          219 callsubr
          77.8399963379 84.6100006104 118.36000061 121.220001221 43 callgsubr
          -200.330001831 -201.419998169 -76.0599975586 -82.1300048828 -120.130004883 -115.619995117 -80.5800018311 82.1300048828 200.419998169 vhcurveto
          endchar
        </CharString>
        <CharString name="R">
          98 21 -21 295.619995117 67.3200073242 256.970001221 183 callsubr
          303.36000061 443 callsubr
          rmoveto
          167.63999939 -295.61000061 rlineto
          103.449996948 hlineto
          -186.770004272 311.240005493 rlineto
          98.6000061035 28.5599975586 51.4199981689 57.1100006104 98.25 vvcurveto
          127.199996948 -87.2899932861 65.7400054932 448 callsubr
          vhcurveto
          -177.520004272 -688.100006104 -75 callsubr
          295.619995117 hlineto
          67.3200073242 vmoveto
          256.970001221 89.3899993896 vlineto
          117.380004883 49.5200042725 -37.4499969482 -87.2899932861 -94.6799926758 -56.9400024414 -37.5500030518 -99.0899963379 hvcurveto
          endchar
        </CharString>
        <CharString name="Racute">
          98 21 -21 443 callsubr
          67.3300018311 256.959991455 183 callsubr
          205.5 756 108 callgsubr
          119.86000061 -505.38999939 22 callsubr
        </CharString>
        <CharString name="Rcaron">
          98 21 -21 443 callsubr
          67.3300018311 256.959991455 183 callsubr
          271 754.5 rmoveto
          55.5 hlineto
          133.5 108 -36 41.5 -126 -81 -124.5 81 -37 -41.5 rlineto
          166.86000061 -566.88999939 22 callsubr
        </CharString>
        <CharString name="Rcommaaccent">
          98 21 -21 443 callsubr
          67.3300018311 256.959991455 188 callsubr
          -40 callsubr
          67.1699981689 142 callsubr
          80.6100006104 92.1100006104 vstem
          574.449996948 hmoveto
          -186.770004272 311.240005493 rlineto
          98.6000061035 28.5500030518 51.4299926758 57.1100006104 98.2599945068 vvcurveto
          127.190002441 -87.2899932861 65.7400054932 -170.330001831 vhcurveto
          -177.509994507 138 callsubr
          443 callsubr
          114.039993286 hlineto
          167.630004883 -295.61000061 rlineto
          -281.679992676 362.940002441 rmoveto
          256.960006714 89.3899993896 vlineto
          117.380004883 49.5200042725 -37.4499969482 -87.2899932861 -94.6699981689 -56.9400024414 -37.5500030518 -99.0899963379 hvcurveto
          21.4199981689 -441.940002441 -101 callgsubr
        </CharString>
        <CharString name="Rho">
          -52 callgsubr
        </CharString>
        <CharString name="S">
          64 callsubr
          269.350006104 699.839996338 -103 callsubr
          endchar
        </CharString>
        <CharString name="Sacute">
          64 callsubr
          394.5 -29 callsubr
          86.8500061035 464 callsubr
          -103 callsubr
          endchar
        </CharString>
        <CharString name="Sacute.loclPLK">
          64 callsubr
          395.5 86 callsubr
          2.85000610352 -33.6600036621 -103 callsubr
          endchar
        </CharString>
        <CharString name="Scaron">
          64 callsubr
          437.5 -13 callsubr
          -34.6499938965 -54.6600036621 -103 callsubr
          endchar
        </CharString>
        <CharString name="Scedilla">
          41 135 callgsubr
          46.8999938965 71.0399932861 -70.1799926758 70.1799926758 568.230010986 83 callgsubr
          hstemhm
          56.1000061035 45 callgsubr
          85.8600006104 62.5500030518 145 callgsubr
          71 24.6399993896 90.2200012207 hintmask 0000000000000000
          hintmask 0110111101000000
          500.350006104 190.839996338 rmoveto
          129.419998169 -89.4799957275 43.2599945068 -113.229995728 34.8999938965 vhcurveto
          -123.61000061 37.8699951172 -29.4499969482 28.7799987793 60.9700012207 vvcurveto
          67.2899932861 55.7700042725 34.8399963379 72.4900054932 58.4199981689 47.6100006104 -18.1300048828 -44.2599945068 50 vhcurveto
          49.6199951172 55.0899963379 rlineto
          50.9700012207 -56.9700012207 -58.5800018311 28 -93.5800018311 hhcurveto
          -125.330001831 -87.9299926758 -73.3500061035 -103.940002441 -104.929992676 67.2899932861 -50.2299957275 134.63999939 -41.2599945068 hvcurveto
          118.160003662 -36.3800048828 33.9400024414 -30.9100036621 -70.7400054932 vvcurveto
          hintmask 0111011101000000
          -85.1900024414 -67.7799987793 -42.9700012207 -84.6100006104 -76.1600036621 -55.6199951172 27.3800048828 45 -47.2599945068 vhcurveto
          -50.4799957275 203 callsubr
          52.1399993896 -50.75 68.4600067139 -31.9799957275 86.5800018311 -4.85000610352 rlinecurve
          -9.91000366211 -86.8999938965 rlineto
          hintmask 1011011111000000
          -49 callsubr
          hintmask 0111011101000000
          136 callgsubr
          hintmask 1011011111000000
          -25 callsubr
          hintmask 0110111101000000
          84 callsubr
          47.7599945068 vlineto
          130.350006104 11.7200012207 77.0099945068 79.3300018311 110.029998779 vvcurveto
          endchar
        </CharString>
        <CharString name="Scircumflex">
          64 callsubr
          274.5 -74 callgsubr
          119.350006104 -60.1600036621 -103 callsubr
          endchar
        </CharString>
        <CharString name="Scommaaccent">
          14 callgsubr
          69.4200134277 142 callsubr
          87.629989624 90.2200012207 vstem
          269.350006104 699.839996338 -103 callsubr
          -0.860000610352 -778.839996338 -101 callgsubr
        </CharString>
        <CharString name="Sigma">
          -2 0 -14 callgsubr
          544.740005493 -14 callgsubr
          hstem
          282 callsubr
          418.220001221 vstem
          459.509994507 346 callsubr
          rmoveto
          -14 callgsubr
          -418.220001221 -70 vlineto
          224.059997559 -279.100006104 -224.059997559 -269 rlineto
          -70 418.220001221 -14 callgsubr
          -319.089996338 vlineto
          203.220001221 241.289993286 rlineto
          55.5500030518 vlineto
          -203.220001221 247.899993896 rlineto
          endchar
        </CharString>
        <CharString name="T">
          26 callgsubr
        </CharString>
        <CharString name="Tau">
          26 callgsubr
        </CharString>
        <CharString name="Tbar">
          12 19.5 -21 323.270004272 114 callsubr
          225.649993896 237 callsubr
          hstem
          212.5 87 vstem
          299.5 612 rmoveto
          193 hlineto
          9.5 237 callsubr
          rlineto
          -487 -74.5 197.5 -225.649993896 -122.830001831 280 callgsubr
          122.830001831 -323.270004272 87 323.270004272 124.919998169 114 callsubr
          -124.919998169 hlineto
          endchar
        </CharString>
        <CharString name="Tcaron">
          9 21 -21 613.669998169 74.4199981689 hstem
          212.550003052 -75 callsubr
          vstem
          417.5 -13 callsubr
          208.479995728 -140.830001831 rmoveto
          44 callsubr
          -613.669998169 -75 callsubr
          613.669998169 hlineto
          endchar
        </CharString>
        <CharString name="Tcedilla">
          9 135 callgsubr
          79 -21 613.669998169 74.4199981689 hstemhm
          212.550003052 86.4499969482 24.5 71 hintmask 01111100
          299 hmoveto
          0.289993286133 613.669998169 rlineto
          193.190002441 hlineto
          44 callsubr
          -613.669998169 33.1199951172 hlineto
          -11.1699981689 63 callsubr
        </CharString>
        <CharString name="Theta">
          38 callsubr
          257.910003662 49 callgsubr
          242.260009766 71.6799926758 305 callsubr
          73.9999847412 243.520004272 74.8699951172 215 callgsubr
          345.869995117 699.839996338 -106 callsubr
          121.330001831 -310.320007324 rmoveto
          49 callgsubr
          -243.520004272 -68.0599975586 vlineto
          endchar
        </CharString>
        <CharString name="Thorn">
          75 21 -21 129.190002441 69.0700073242 302.609985352 280 callsubr
          119.020004272 287 callgsubr
          262.029998779 92.1000061035 400 callgsubr
          569.059997559 rmoveto
          119.029998779 -86.7400054932 138 callsubr
          129.190002441 89.7100067139 vlineto
          504 callsubr
          113.330001831 118 callsubr
          161.490005493 147.839996338 -100.199996948 66.8399963379 -164.449996948 hvcurveto
          -89.4799957275 -370.809997559 rmoveto
          302.619995117 vlineto
          88.6100006104 506 callsubr
          rlineto
          106.259994507 67.1600036621 -37.8999938965 -109.580001831 -123.710006714 -70.7100067139 -31.4199981689 -104.710006714 hvcurveto
          endchar
        </CharString>
        <CharString name="U">
          31 callsubr
          566.970001221 688.089996338 -96 callgsubr
        </CharString>
        <CharString name="Uacute">
          31 callsubr
          449.5 -29 callsubr
          329.470001221 -67.9100036621 -96 callgsubr
        </CharString>
        <CharString name="Ubreve">
          48 callgsubr
          462 callsubr
          65 hstem
          330 callsubr
          300.029998779 227 callsubr
          328.5 -87 callgsubr
          238.470001221 -71.4100036621 -96 callgsubr
        </CharString>
        <CharString name="Ucircumflex">
          31 callsubr
          330 -74 callgsubr
          361.470001221 -71.9100036621 -96 callgsubr
        </CharString>
        <CharString name="Udieresis">
          48 callgsubr
          113.910003662 106 496 callsubr
          -5.32000732422 -67 callgsubr
          -6.64999389648 87.6199951172 hintmask 00000000
          hintmask 11101100
          227.5 888 -107 callgsubr
          hintmask 11110010
          134.970001221 -199.910003662 -96 callgsubr
        </CharString>
        <CharString name="Ugrave">
          31 callsubr
          438 -12 callgsubr
          150.970001221 -67.9100036621 -96 callgsubr
        </CharString>
        <CharString name="Uhungarumlaut">
          31 callsubr
          369 915 117 callgsubr
          -60 callsubr
          153.970001221 -73.9100036621 -96 callgsubr
        </CharString>
        <CharString name="Umacron">
          48 callgsubr
          121.910003662 64 496 callsubr
          17.6799926758 265.5 16.8500061035 87.6199951172 hintmask 00000000
          hintmask 11111100
          197 790 -37 callgsubr
          hintmask 11110100
          369.970001221 -165.910003662 -96 callgsubr
        </CharString>
        <CharString name="Uogonek">
          157 -228.509994507 -64 callsubr
          152.580001831 73.1000061035 626.41998291 -20 hstem
          330 callsubr
          39.1799926758 74 186.850006104 227 callsubr
          566.970001221 186 callsubr
          -87.6199951172 -462.289993286 hlineto
          -107.509994507 -47.5099945068 -56.6199951172 -102.869995117 -101.869995117 -47.7799987793 56.2299957275 107.899993896 vhcurveto
          462.289993286 -86.7400054932 -468.770004272 vlineto
          -131.169998169 75.1300048828 -93.4700012207 145.86000061 -6.11000061035 vhcurveto
          -62.4799957275 -27.7299957275 -32.5899963379 -40.4799957275 -50.3699951172 -86 callsubr
          38.3999938965 23.8800048828 33.4299926758 97.8500061035 42.8300018311 hvcurveto
          99.4499969482 29.1199951172 53.2899932861 82.4799957275 108.070007324 vvcurveto
          endchar
        </CharString>
        <CharString name="Upsilon">
          59 callgsubr
          315.770004272 265.770004272 rmoveto
          -89 callgsubr
        </CharString>
        <CharString name="Upsilondieresis">
          41 21 -21 688.100006104 -20 113.899993896 106 hstemhm
          348 callgsubr
          106.5 4.16000366211 54 callgsubr
          6.72999572754 500 callgsubr
          171 888 -97 callgsubr
          -59.7299957275 -622.229995728 rmoveto
          -89 callgsubr
        </CharString>
        <CharString name="Upsilontonos">
          41 21 -21 688 -20 20.1000061035 -20 hstemhm
          228.160003662 54 callgsubr
          hintmask 00000000
          hintmask 11010000
          -4 155 callgsubr
          389.270004272 -232.229995728 rmoveto
          hintmask 10110000
          -89 callgsubr
        </CharString>
        <CharString name="Uring">
          48 callgsubr
          83.9100036621 187 callsubr
          113 47 hstem
          330 callsubr
          40.6799926758 57 107 57 38.3500061035 227 callsubr
          330.5 958.5 -83 callgsubr
          236.470001221 -223.410003662 -96 callgsubr
        </CharString>
        <CharString name="Utilde">
          48 callgsubr
          116.410003662 27 callgsubr
          53 callsubr
          86.7400054932 300.029998779 87.6199951172 hintmask 00000000
          hintmask 11101100
          391.5 449 callgsubr
          rmoveto
          -92 callgsubr
          hintmask 11011100
          -102 callgsubr
          hintmask 11101100
          -82 callsubr
          hintmask 11011100
          175.470001221 -96.4100036621 -96 callgsubr
        </CharString>
        <CharString name="V">
          51 0 93.4499969482 -72.4499969482 -21 688.089996338 342 callgsubr
          536.770004272 hintmask 01110000
          324.580001831 hmoveto
          220.63999939 688.089996338 341 callsubr
          hintmask 10110000
          -177.899993896 -594.63999939 -177.910003662 594.63999939 rlineto
          -93.0899963379 hlineto
          222.259994507 93 callsubr
          endchar
        </CharString>
        <CharString name="W">
          65 callsubr
          653.380004883 hmoveto
          -66 callgsubr
        </CharString>
        <CharString name="Wacute">
          65 callsubr
          530.5 -29 callsubr
          334.880004883 -756 rmoveto
          -66 callgsubr
        </CharString>
        <CharString name="Wcircumflex">
          65 callsubr
          411 -74 callgsubr
          366.880004883 -760 rmoveto
          -66 callgsubr
        </CharString>
        <CharString name="Wdieresis">
          319 0 76.4199981689 510.25 101.419998169 0 -20 113.910003662 106 hstemhm
          254.5 -67 callgsubr
          hintmask 10111100
          308 888 -107 callgsubr
          140.880004883 -888 rmoveto
          142.449996948 103 callsubr
          -79.8999938965 hlineto
          -118.869995117 -611.669998169 -140 611.669998169 rlineto
          -92.8699951172 hlineto
          -137.130004883 -611.669998169 -115.520004272 611.669998169 rlineto
          -85.2599945068 hlineto
          142.449996948 93 callsubr
          108.289993286 hlineto
          hintmask 11011100
          133.160003662 586.669998169 132.289993286 -586.669998169 rlineto
          endchar
        </CharString>
        <CharString name="Wgrave">
          65 callsubr
          518.5 -12 callgsubr
          156.880004883 -756 rmoveto
          -66 callgsubr
        </CharString>
        <CharString name="X">
          -35 callsubr
        </CharString>
        <CharString name="Xi">
          5 0 80.6499938965 231.120010376 77.8999938965 219.779998779 78.6399993896 hstem
          46.2899932861 415.190002441 vstem
          441.380004883 609.449996948 rmoveto
          11.7100067139 78.6399993896 rlineto
          -406.800003052 -78.6399993896 hlineto
          347.869995117 -297.679992676 rmoveto
          77.8999938965 -287.38999939 -77.8999938965 vlineto
          354.710006714 -311.779998779 rmoveto
          80.6499938965 -415.190002441 -80.6499938965 vlineto
          endchar
        </CharString>
        <CharString name="Y">
          59 callgsubr
          315.770004272 265.770004272 rmoveto
          -89 callgsubr
        </CharString>
        <CharString name="Yacute">
          59 callgsubr
          393.5 -29 callsubr
          134.270004272 -490.229995728 rmoveto
          -89 callgsubr
        </CharString>
</ttFont>
